<svg width="200" height="288" viewBox="0 0 200 288" fill="none" xmlns="http://www.w3.org/2000/svg">
<g clip-path="url(#clip0_51_414)">
<path d="M196.863 251.314C199.134 256.043 200.324 260.957 199.181 266.196C198.81 267.849 198.037 269.425 197.527 271.048C197.373 271.558 197.249 272.238 197.465 272.67C199.196 276.086 198.532 279.053 195.364 281.34C192.52 283.41 189.259 284.538 185.859 285.172C177.312 286.733 168.72 286.671 160.111 285.867C146.975 284.647 134.163 281.865 121.552 278.064C115.308 276.194 109.126 274.123 103.423 270.862C102.357 270.244 101.43 269.394 100.363 268.807C99.8531 268.529 99.0495 268.375 98.5395 268.56C93.3467 270.492 88.2311 272.655 82.992 274.448C74.7391 277.276 66.4245 279.98 58.0635 282.53C53.3652 283.967 48.5742 285.141 43.7678 286.13C35.4995 287.815 27.2003 288.371 18.9011 286.13C16.3047 285.435 13.631 285.064 11.3746 283.333C9.08734 281.572 8.37643 279.346 9.4428 276.611C9.59735 276.225 9.2728 275.452 8.9328 275.081C3.94091 269.765 2.11725 263.6 3.92546 256.476C5.30093 251.036 8.4537 246.74 12.5956 243.109C18.4684 237.947 25.2994 234.749 32.9649 233.481C37.3232 232.755 41.7432 232.353 46.1324 231.936C47.477 231.812 48.8524 232.121 50.3824 232.23C50.3361 231.364 50.3052 230.653 50.2743 229.927C50.2279 228.366 50.1197 226.775 50.1815 225.214C50.2588 223.004 51.0779 221.165 53.2879 220.3C54.138 219.96 54.3234 219.434 54.3389 218.615C54.6325 208.525 54.9261 198.434 55.2507 188.343C55.3743 184.711 55.5753 181.064 55.7298 177.433C55.7607 176.861 55.7298 176.274 55.7298 175.501C53.8598 177.124 52.2679 178.7 50.4597 179.998C44.2624 184.464 37.3232 186.21 29.704 185.499C23.723 184.928 18.1593 183.305 13.1056 179.967C7.91278 176.521 4.51274 171.762 2.47271 165.905C-0.47915 157.39 -0.0927811 148.875 2.37998 140.376C3.24545 137.409 4.52819 134.566 5.39366 131.614C5.6873 130.564 5.45548 129.296 5.22366 128.184C3.81727 121.245 2.31816 114.338 0.942688 107.399C0.772685 106.549 0.896324 105.437 1.32906 104.726C3.01363 101.991 5.14638 99.8581 8.74734 100.059C12.781 100.275 16.8147 100.399 20.8484 100.538C21.7757 100.584 22.703 100.554 23.6612 100.554C25.0985 72.7224 37.4777 51.3662 61.1544 36.423C60.4435 36.2067 59.8717 36.0522 59.2998 35.8358C57.0898 35.0013 55.5289 32.5907 55.8071 30.4272C56.1625 27.8002 58.0789 25.8531 60.6599 25.6522C61.9735 25.5595 63.3181 25.544 64.6472 25.6213C65.8372 25.6986 66.4245 25.374 66.8418 24.1378C69.1909 17.1221 73.6264 11.6826 79.7774 7.6493C82.9147 5.59403 86.3766 4.1878 90.0703 3.41514C90.8121 3.26061 91.4921 3.12153 91.6466 2.19434C91.693 1.94709 91.9712 1.7153 92.1876 1.51441C94.2894 -0.401782 98.8331 0.231797 100.363 2.62703C100.564 2.92064 101.043 3.12153 101.414 3.1988C111.583 5.2077 119.172 10.7399 124.117 19.8727C124.828 21.2017 125.477 22.5925 125.941 24.0296C126.327 25.2504 126.899 25.7913 128.228 25.6677C129.387 25.544 130.593 25.6213 131.767 25.6522C133.807 25.6831 135.415 26.5948 136.326 28.3874C137.285 30.2572 137.254 32.1889 135.986 33.9814C135.724 34.3832 135.445 34.7695 135.214 35.1095C138.196 37.0566 141.195 38.8183 143.976 40.889C153.497 47.9511 161.085 56.6666 166.509 67.2829C172.537 79.0737 175.164 91.5753 174.932 104.726C174.901 105.916 175.18 106.797 175.968 107.786C181.593 114.801 186.06 122.512 189.151 130.981C191.902 138.476 193.926 146.156 193.293 154.191C192.489 164.499 187.497 172.349 178.379 177.448C170.93 181.621 163.063 181.543 155.027 179.813C148.458 178.406 142.539 175.486 136.821 172.102C136.62 171.978 136.404 171.87 136.187 171.762C135.971 171.653 135.755 171.561 135.275 171.36C138.104 188.111 140.901 204.661 143.729 221.366C144.255 221.412 144.734 221.459 145.197 221.49C148.644 221.722 150.452 223.421 150.715 226.837C150.854 228.536 150.761 230.267 150.761 231.998C150.761 232.523 150.761 233.049 150.761 233.79C152.167 233.667 153.419 233.574 154.671 233.45C163.156 232.554 171.486 233.141 179.491 236.294C187.033 239.245 193.246 243.804 196.863 251.314ZM197.156 266.057C198.594 257.913 195.734 250.99 190.124 245.257C184.932 239.956 178.24 237.345 171.069 235.954C162.46 234.285 153.929 235.166 145.445 237.02C144.579 237.206 142.926 237.159 142.833 236.866C142.477 235.629 143.729 235.228 144.579 234.702C147.438 232.925 149.046 230.453 148.783 226.991C148.551 224.086 146.727 222.819 143.915 223.53C139.417 224.658 134.92 225.647 130.237 225.678C127.734 225.708 125.601 227.686 125.4 229.974C125.153 232.662 125.663 235.166 127.1 237.468C128.12 239.106 127.95 239.57 126.126 240.203C122.232 241.548 118.229 241.378 114.319 240.543C112.171 240.095 110.038 239.106 108.137 237.963C106.205 236.804 106.112 236.618 104.86 238.488C102.032 242.769 100.966 247.559 100.858 252.597C100.734 257.635 102.882 261.498 107.457 263.646C111.398 265.5 115.447 267.169 119.573 268.56C129.665 271.96 140.02 274.37 150.483 276.209C156.958 277.353 163.511 278.048 167.174 278.543C176.37 278.481 182.552 277.847 188.548 275.807C193.293 274.185 196.306 270.94 197.156 266.057ZM175.813 176.83C185.673 172.426 192.195 161.933 191.685 150.993C191.113 138.321 186.462 127.009 179.909 116.362C176.71 111.154 172.784 106.503 168.534 102.114C168.163 101.743 168.225 100.955 168.086 100.368C168.565 100.492 169.06 100.631 169.554 100.77C170.42 101.002 171.393 101.62 172.089 101.388C172.599 101.218 172.784 99.9509 173.031 99.1473C173.14 98.7919 173.109 98.3592 173.062 97.9729C172.676 94.8513 172.382 91.7143 171.841 88.6237C169.848 77.2502 165.35 66.9275 158.458 57.6711C152.322 49.4191 144.641 42.8824 135.832 37.6129C134.101 36.5776 132.339 36.1603 130.299 36.1603C109.172 36.2221 88.0457 36.1912 66.919 36.2221C66.1618 36.2221 65.3117 36.2994 64.6626 36.6394C55.7607 41.3062 48.2652 47.6884 41.9132 55.4613C37.0605 61.3953 33.274 67.9165 30.6313 75.1331C27.7567 82.9679 25.7012 90.9571 25.5467 99.3636C25.5312 100.322 25.7939 100.631 26.783 100.677C40.1205 101.156 53.4425 101.666 66.7799 102.176C69.9636 102.3 73.1628 102.47 76.3619 102.671C78.8347 102.841 80.6429 104.51 81.0447 106.827C81.7247 110.66 82.4356 114.477 83.1156 118.294C83.8575 122.482 84.5993 126.685 85.4184 131.305C86.9175 128.137 89.2512 126.407 91.9557 125.124C96.5922 122.899 101.507 121.879 106.638 121.74C115.308 121.493 123.113 123.98 130.083 129.126C131.844 130.44 133.405 132.14 135.337 133.113C140.422 135.663 145.63 137.95 150.823 140.299C153.017 141.303 154.223 140.778 155.011 138.491C155.289 137.687 155.382 136.76 155.367 135.895C155.32 132.773 153.991 130.007 152.77 127.21C152.569 126.762 152.631 125.788 152.894 125.634C153.728 125.155 154.038 125.897 154.347 126.561C156.526 131.089 157.87 135.833 158.257 140.84C158.38 142.416 158.89 143.436 160.621 143.791C162.383 144.162 164.129 144.765 165.814 145.414C166.231 145.568 166.432 146.295 166.741 146.743C166.278 146.836 165.783 147.067 165.35 146.99C164.377 146.805 163.449 146.496 162.507 146.202C154.393 143.668 146.403 140.763 138.784 136.992C136.728 135.972 134.549 134.999 132.849 133.515C126.837 128.292 120.192 124.583 112.14 123.78C105.587 123.131 99.1422 123.563 93.1149 126.53C90.9512 127.581 88.8493 128.802 87.6284 131.043C86.8402 132.48 87.3348 134.025 88.7102 134.659C90.7503 135.57 95.804 134.118 97.1331 132.279C99.2195 129.451 101.909 127.457 105.432 126.87C105.973 126.777 106.607 127.272 107.21 127.488C106.761 127.813 106.36 128.292 105.865 128.431C100.641 129.791 97.5967 133.33 96.1749 138.352C95.3867 141.072 97.3495 143.065 99.8377 142.416C101.46 136.312 105.571 132.851 111.444 131.259C111.846 131.151 112.402 131.614 112.881 131.815C112.541 132.186 112.263 132.82 111.846 132.928C108.075 133.855 105.262 136.049 103.068 139.202C102.063 140.639 101.63 142.2 101.723 143.915C101.816 145.708 103.052 146.944 104.83 146.666C106.143 146.465 107.565 146.048 108.647 145.306C110.532 143.992 112.155 142.339 113.932 140.886C114.365 140.531 114.999 140.423 115.54 140.206C115.509 140.732 115.493 141.242 115.478 141.767C115.447 142.432 115.231 143.142 115.401 143.745C116.699 148.211 120.3 152.476 126.42 150.884C126.744 150.807 127.208 151.209 127.61 151.394C127.347 151.796 127.146 152.445 126.791 152.553C124.009 153.388 121.351 152.986 118.878 151.472C116.081 149.772 114.566 147.145 113.577 143.915C113.098 144.301 112.789 144.657 112.387 144.889C110.455 146.017 108.57 147.268 106.53 148.165C104.613 149.015 101.677 148.412 101.074 146.851C100.255 144.749 98.7713 144.41 96.9785 143.9C95.4949 143.467 94.2585 143.699 93.0221 144.286C92.0021 144.765 91.523 145.692 91.7703 146.851C92.0176 147.948 92.6203 148.536 93.8258 148.536C95.1085 148.551 96.3758 148.783 97.6585 148.86C103.114 149.215 108.57 149.524 114.01 149.88C115.818 150.004 116.467 150.714 116.421 152.507C116.405 153.481 116.158 154.423 115.957 155.706C117.626 155.845 119.264 155.922 120.903 156.169C121.552 156.262 122.293 156.571 122.742 157.019C125.168 159.507 127.347 162.273 129.928 164.591C138.32 172.102 147.995 177.031 159.215 178.777C164.933 179.674 170.481 179.21 175.813 176.83ZM141.195 222.278C141.488 222.216 141.921 221.505 141.875 221.165C141.21 216.684 140.499 212.233 139.773 207.767C138.428 199.577 137.022 191.387 135.693 183.181C135.291 180.632 134.333 178.515 131.829 177.526C130.144 176.846 128.383 176.243 126.605 175.949C119.635 174.821 113.129 176.521 106.931 179.565C103.949 181.033 102.496 183.475 102.898 186.89C103.361 191.001 103.748 195.111 104.18 199.222C105.247 209.344 106.298 219.481 107.38 229.603C107.581 231.457 107.812 233.311 108.183 235.135C108.291 235.707 108.832 236.356 109.342 236.649C114.396 239.508 119.836 239.554 125.616 238.72C125.4 238.117 125.245 237.716 125.122 237.298C124.581 235.676 123.885 234.084 123.561 232.431C123.035 229.85 124.009 225.6 128.012 224.41C129.449 223.978 131.01 223.931 132.509 223.7C135.399 223.236 138.305 222.803 141.195 222.278ZM126.482 170.355C124.813 166.353 123.174 162.412 121.521 158.503C121.413 158.24 121.057 157.977 120.794 157.931C118.723 157.591 116.637 157.282 114.551 157.004C114.319 156.973 114.072 157.05 113.84 157.127C107.163 159.306 100.518 161.562 93.8103 163.649C90.7503 164.591 87.7984 166.059 84.4138 165.812C79.3601 165.472 74.291 165.271 69.2218 165.086C68.3254 165.055 67.3363 165.24 66.5636 165.658C64.9099 166.523 64.9408 167.265 66.5945 168.161C71.1227 170.618 75.9601 172.225 80.9365 173.461C91.5385 176.088 102.233 176.552 112.99 174.481C117.719 173.57 122.324 172.225 126.482 170.355ZM112.99 155.567C114.303 155.149 114.86 154.006 114.504 152.352C114.272 152.414 114.041 152.445 113.809 152.522C105.664 155.103 97.5349 157.684 89.3903 160.264C87.0411 161.006 87.0411 161.022 87.3193 163.525C87.3348 163.571 87.3657 163.618 87.4584 163.819C90.7966 162.752 94.0576 161.702 97.3185 160.651C102.542 158.951 107.766 157.251 112.99 155.567ZM110.362 151.75C110.331 151.642 110.316 151.518 110.285 151.41C103.253 150.993 96.2213 150.575 89.0193 150.143C89.2512 151.688 89.5603 152.986 89.5912 154.284C89.6221 155.613 89.3748 156.942 89.2203 158.41C96.1285 156.231 103.253 153.99 110.362 151.75ZM105.046 235.598C105.85 234.949 106.159 234.393 106.05 233.404C105.525 228.675 104.984 223.931 104.505 219.187C103.16 205.681 101.831 192.191 100.518 178.685C100.425 177.788 100.054 177.51 99.204 177.526C97.7822 177.556 96.3449 177.618 94.9385 177.495C93.4858 177.371 93.1148 177.912 93.1303 179.303C93.4394 195.389 93.6867 211.476 93.9649 227.563C93.9803 228.428 94.0576 229.294 94.104 230.097C99.7449 230.561 100.41 235.104 101.8 239.106C102.929 237.855 103.856 236.557 105.046 235.598ZM99.6059 246.23C100.579 242.027 99.8222 238.241 97.9676 234.563C96.6849 232.013 95.2322 231.704 92.8367 233.188C91.8785 233.775 90.9203 234.424 89.9003 234.841C85.3257 236.68 80.581 237.221 75.6973 236.572C73.6109 236.294 73.41 235.815 73.8891 233.775C74.3682 231.689 74.7701 229.525 74.7391 227.393C74.7082 223.746 72.6528 222.355 69.0363 222.633C66.1154 222.85 63.1635 222.618 60.2271 222.479C58.3262 222.401 56.4407 222.077 54.5398 222C53.2416 221.938 52.4534 222.85 52.4688 224.039C52.4998 225.322 52.6388 226.728 53.1643 227.872C54.4471 230.653 56.7653 232.461 59.4853 233.806C59.8871 234.022 60.1344 234.532 60.459 234.919C59.918 235.088 59.3308 235.459 58.8053 235.382C56.0853 235.027 53.3961 234.378 50.6606 234.13C38.1268 232.987 26.3194 235.104 15.9647 242.661C10.5865 246.601 6.3364 251.515 5.23911 258.438C3.78636 267.525 8.73189 274.695 16.7684 278.156C20.9566 279.964 25.3767 280.413 29.9204 280.613C33.7222 280.15 37.555 279.81 41.326 279.192C51.1088 277.585 60.5517 274.633 69.8864 271.372C78.2783 268.452 86.5311 265.16 94.8612 262.054C96.2058 261.56 97.1485 260.88 97.4267 259.35C97.5813 258.515 98.184 257.758 98.4777 256.924C98.7095 256.275 98.864 255.548 98.9258 254.853C99.1422 251.979 98.9722 249.012 99.6059 246.23ZM94.3203 141.813C94.4594 139.866 94.5831 137.996 94.7067 135.941C91.8939 136.652 88.9266 137.471 86.1293 135.029C86.9175 139.356 87.6439 143.405 88.3702 147.438C88.6021 148.705 89.4212 148.257 90.1784 148.18C89.4984 144.78 90.5339 142.771 94.3203 141.813ZM89.313 232.987C92.4348 231.612 92.373 231.581 92.2958 228.212C91.9867 214.536 91.7085 200.86 91.4303 187.184C91.3685 184.387 90.333 182.069 88.4475 180.029C86.6393 178.051 84.2438 177.139 81.8483 176.32C77.861 174.96 73.8891 173.508 69.8091 172.534C66.3163 171.7 62.9317 172.441 60.3199 175.192C57.9398 177.711 57.3216 180.91 57.1825 184.186C56.858 191.804 56.6262 199.423 56.3634 207.041C56.2244 210.873 56.1007 214.721 56.0389 218.554C56.0234 219.017 56.3789 219.883 56.6416 219.914C59.8408 220.331 63.0554 220.702 66.2854 220.918C67.7381 221.026 69.2218 220.624 70.69 220.686C73.1937 220.763 75.2646 221.814 76.0219 224.333C76.5319 225.987 76.7483 227.795 76.6864 229.525C76.6246 231.241 76.0683 232.956 75.651 234.98C80.442 234.872 85.0166 234.872 89.313 232.987ZM86.6702 157.9C88.1384 156.818 87.9684 155.443 87.752 154.145C86.2684 145.769 84.7538 137.409 83.2547 129.049C82.0492 122.373 80.7665 115.713 79.6383 109.022C78.9892 105.081 78.2165 104.355 74.1982 104.216C63.4263 103.876 52.6543 103.443 41.8823 103.057C30.6776 102.655 19.4575 102.238 8.25279 101.882C7.4955 101.867 6.72277 102.253 5.96548 102.454C6.01185 102.593 6.04276 102.732 6.08912 102.871C21.9766 103.521 37.8486 104.17 53.7361 104.788C59.8253 105.019 65.9299 105.174 72.0346 105.406C75.6201 105.545 77.5055 107.106 78.1546 110.567C79.2056 116.208 80.1792 121.879 81.1838 127.535C82.652 135.663 84.1202 143.791 85.5729 151.904C85.9284 153.867 86.2839 155.829 86.6702 157.9ZM84.0275 164.22C85.032 164.282 85.3257 163.865 85.2793 162.938C85.2484 162.057 85.4647 161.223 84.0429 161.161C74.6155 160.713 65.2036 160.187 55.7762 159.693C55.2043 159.662 54.6325 159.677 53.968 159.677C53.968 160.651 53.968 161.47 53.968 162.32C54.3234 162.397 54.6016 162.505 54.8798 162.521C64.6008 163.092 74.3064 163.649 84.0275 164.22ZM82.5438 159.337C84.182 159.43 84.9238 158.595 84.6302 156.973C83.3011 149.324 81.9256 141.674 80.5656 134.025C79.1747 126.237 77.7683 118.448 76.3928 110.66C76.0219 108.589 74.6928 107.337 72.5909 107.245C68.9591 107.09 65.3117 106.982 61.6799 106.843C49.3779 106.364 37.0914 105.869 24.7894 105.406C18.1593 105.159 11.5137 104.942 4.8682 104.726C3.10635 104.664 2.2718 105.545 2.59635 107.121C3.87909 113.225 5.16184 119.329 6.46004 125.433C7.37187 129.714 8.29915 133.979 9.21098 138.259C10.2465 143.158 11.1892 148.087 12.3792 152.94C12.6265 153.929 13.7083 155.258 14.5892 155.412C17.3556 155.922 20.1993 155.953 22.5484 156.138C23.553 153.805 24.1712 151.765 25.2221 149.988C26.9685 147.067 30.554 146.882 32.8258 149.401C33.1504 149.756 33.4749 150.112 33.815 150.483C37.215 145.553 42.6705 146.897 44.4942 151.642C47.6161 149.308 50.7379 149.849 52.4843 153.094C53.0561 154.16 53.1643 155.443 53.628 156.571C53.8289 157.035 54.4007 157.637 54.8334 157.668C64.0599 158.271 73.3019 158.812 82.5438 159.337ZM56.858 169.135C58.218 168.115 59.0371 166.554 59.3153 164.591C57.4916 164.483 55.7916 164.39 54.0916 164.267C51.9897 164.128 52.0052 164.128 52.0516 162.088C52.067 161.006 52.2061 159.909 52.0361 158.858C51.7734 157.282 51.4025 155.69 50.8461 154.207C50.3979 152.986 49.4552 151.966 47.987 152.028C46.4415 152.09 45.3751 152.986 44.7724 154.423C42.9951 158.565 42.7942 162.83 43.9842 167.095C45.0351 170.912 48.6361 173.029 52.0361 171.823C53.7516 171.221 55.4052 170.247 56.858 169.135ZM51.2325 177.247C53.087 175.764 54.4625 174.064 54.8334 172.735C52.0207 174.049 49.1924 174.45 46.4569 172.874C45.3597 172.256 44.4478 172.256 43.3042 172.565C40.9241 173.23 38.5132 173.384 36.365 171.823C35.4222 171.143 34.5877 170.773 33.3359 171.143C32.4549 171.406 31.3576 171.267 30.4458 171.02C26.783 170 24.8048 167.28 23.6921 163.85C23.3984 162.969 23.0739 162.536 22.1002 162.536C20.632 162.521 19.1484 162.366 17.6802 162.304C14.5429 162.196 13.5538 161.192 13.461 158.101C13.4456 157.606 13.1983 156.957 12.8274 156.648C11.4365 155.474 10.6637 154.037 10.3083 152.275C9.08734 146.372 7.8046 140.469 6.46004 134.164C6.08912 134.921 5.87275 135.308 5.71821 135.694C2.96726 143.019 1.46815 150.544 2.4418 158.395C3.13726 163.942 4.91456 169.135 8.54643 173.492C13.4301 179.349 19.9057 182.347 27.324 183.49C36.195 184.85 44.2006 182.919 51.2325 177.247ZM42.7787 154.469C42.9023 154.099 43.0569 153.697 43.026 153.326C42.9178 151.564 41.2023 149.509 39.6878 149.215C38.0186 148.906 36.4577 149.787 35.4841 151.734C33.104 156.494 32.8258 161.485 34.4177 166.477C35.8241 170.865 39.3787 172.318 43.6133 170.494C40.9087 165.225 40.9241 159.894 42.7787 154.469ZM32.3622 154.902C32.5013 154.238 32.8258 153.558 32.7486 152.924C32.5631 151.487 30.8476 149.525 29.6885 149.416C27.9885 149.277 27.0303 150.452 26.1958 151.719C26.0876 151.873 25.9794 152.043 25.9021 152.229C24.3566 156.432 24.0166 160.682 25.8558 164.869C26.9839 167.404 30.2449 170.51 33.7686 169.227C31.3731 164.576 31.404 159.785 32.3622 154.902ZM22.8266 160.79C22.8266 159.77 22.8266 158.951 22.8266 157.977C20.1993 157.838 17.7729 157.715 15.3002 157.591C15.192 158.982 15.192 160.218 16.6911 160.404C18.7002 160.666 20.7557 160.682 22.8266 160.79Z" fill="#2B2B37"/>
<path d="M190.124 245.257C195.734 250.99 198.593 257.913 197.156 266.057C196.306 270.94 193.292 274.185 188.548 275.807C182.551 277.847 176.37 278.481 167.174 278.543C163.511 278.048 156.958 277.353 150.483 276.209C140.02 274.37 129.665 271.96 119.573 268.56C115.447 267.169 111.398 265.5 107.457 263.646C102.882 261.498 100.734 257.635 100.858 252.597C100.966 247.559 102.032 242.769 104.86 238.488C106.112 236.618 106.205 236.804 108.137 237.963C110.038 239.106 112.17 240.095 114.319 240.543C118.229 241.378 122.232 241.548 126.126 240.203C127.95 239.57 128.12 239.106 127.1 237.468C125.662 235.166 125.152 232.662 125.4 229.974C125.601 227.686 127.733 225.708 130.237 225.678C134.92 225.647 139.417 224.658 143.915 223.53C146.727 222.819 148.551 224.086 148.783 226.991C149.045 230.453 147.438 232.925 144.579 234.702C143.729 235.228 142.477 235.629 142.833 236.866C142.925 237.159 144.579 237.206 145.445 237.02C153.929 235.166 162.46 234.285 171.069 235.954C178.24 237.345 184.931 239.956 190.124 245.257Z" fill="#F9DF4C"/>
<path d="M191.685 150.993C192.195 161.933 185.673 172.426 175.813 176.83C170.481 179.21 164.933 179.674 159.215 178.777C147.995 177.031 138.32 172.102 129.928 164.591C127.347 162.273 125.168 159.507 122.742 157.019C122.294 156.571 121.552 156.262 120.903 156.169C119.264 155.922 117.626 155.845 115.957 155.706C116.158 154.423 116.405 153.481 116.421 152.507C116.467 150.714 115.818 150.004 114.01 149.88C108.57 149.525 103.114 149.215 97.6587 148.86C96.3759 148.783 95.1086 148.551 93.8259 148.536C92.6204 148.536 92.0177 147.948 91.7704 146.851C91.5231 145.692 92.0022 144.765 93.0222 144.286C94.2586 143.699 95.495 143.467 96.9787 143.9C98.7714 144.41 100.255 144.749 101.074 146.851C101.677 148.412 104.613 149.015 106.53 148.165C108.57 147.268 110.455 146.017 112.387 144.889C112.789 144.657 113.098 144.301 113.577 143.915C114.566 147.145 116.081 149.772 118.878 151.472C121.351 152.986 124.009 153.388 126.791 152.553C127.146 152.445 127.347 151.796 127.61 151.394C127.208 151.209 126.745 150.807 126.42 150.884C120.3 152.476 116.699 148.211 115.401 143.745C115.231 143.142 115.447 142.432 115.478 141.767C115.493 141.242 115.509 140.732 115.54 140.206C114.999 140.423 114.365 140.531 113.933 140.886C112.155 142.339 110.532 143.992 108.647 145.306C107.565 146.048 106.143 146.465 104.83 146.666C103.052 146.944 101.816 145.708 101.723 143.915C101.631 142.2 102.063 140.639 103.068 139.202C105.262 136.049 108.075 133.855 111.846 132.928C112.263 132.82 112.542 132.186 112.882 131.815C112.402 131.614 111.846 131.151 111.444 131.259C105.571 132.851 101.461 136.312 99.8378 142.416C97.3496 143.065 95.3868 141.072 96.175 138.352C97.5968 133.33 100.641 129.791 105.865 128.431C106.36 128.292 106.762 127.813 107.21 127.488C106.607 127.272 105.973 126.777 105.432 126.87C101.909 127.457 99.2196 129.451 97.1332 132.279C95.8041 134.118 90.7504 135.57 88.7104 134.659C87.3349 134.025 86.8403 132.48 87.6285 131.043C88.8495 128.802 90.9513 127.581 93.115 126.53C99.1423 123.563 105.587 123.131 112.14 123.78C120.192 124.583 126.837 128.292 132.849 133.515C134.549 134.999 136.728 135.972 138.784 136.992C146.403 140.763 154.393 143.668 162.507 146.202C163.45 146.496 164.377 146.805 165.35 146.99C165.783 147.067 166.278 146.836 166.741 146.743C166.432 146.295 166.231 145.569 165.814 145.414C164.13 144.765 162.383 144.162 160.621 143.791C158.89 143.436 158.38 142.416 158.257 140.84C157.87 135.833 156.526 131.089 154.347 126.561C154.038 125.897 153.729 125.155 152.894 125.634C152.631 125.789 152.569 126.762 152.77 127.21C153.991 130.007 155.32 132.773 155.367 135.895C155.382 136.76 155.289 137.687 155.011 138.491C154.223 140.778 153.018 141.303 150.823 140.299C145.63 137.95 140.422 135.663 135.337 133.113C133.406 132.14 131.845 130.44 130.083 129.126C123.113 123.98 115.308 121.493 106.638 121.74C101.507 121.879 96.5923 122.899 91.9559 125.124C89.2513 126.407 86.9176 128.137 85.4185 131.305C84.5994 126.685 83.8576 122.482 83.1157 118.294C82.4357 114.477 81.7248 110.66 81.0448 106.828C80.643 104.51 78.8348 102.841 76.362 102.671C73.1629 102.47 69.9637 102.3 66.7801 102.176C53.4426 101.666 40.1206 101.156 26.7832 100.677C25.7941 100.631 25.5313 100.322 25.5468 99.3636C25.7013 90.9571 27.7568 82.9679 30.6314 75.1331C33.2742 67.9165 37.0606 61.3953 41.9134 55.4613C48.2653 47.6884 55.7608 41.3062 64.6628 36.6394C65.3119 36.2994 66.1619 36.2222 66.9192 36.2222C88.0458 36.1912 109.172 36.2222 130.299 36.1603C132.339 36.1603 134.101 36.5776 135.832 37.6129C144.641 42.8825 152.322 49.4191 158.458 57.6711C165.35 66.9275 169.848 77.2502 171.841 88.6237C172.382 91.7143 172.676 94.8513 173.062 97.9729C173.109 98.3592 173.14 98.7919 173.032 99.1473C172.784 99.9509 172.599 101.218 172.089 101.388C171.393 101.62 170.42 101.002 169.554 100.77C169.06 100.631 168.565 100.492 168.086 100.368C168.225 100.955 168.163 101.743 168.534 102.114C172.784 106.503 176.71 111.154 179.909 116.362C186.462 127.009 191.114 138.321 191.685 150.993ZM96.8241 76.8793C100.811 74.7004 102.821 71.208 102.728 66.5876C102.635 62.3843 100.641 59.2319 97.025 57.2848C93.3622 55.3068 89.514 55.4922 85.8667 57.4702C83.2394 58.8919 81.8175 61.3644 80.8439 64.0996C80.7203 64.4859 80.5348 64.9959 80.2411 65.135C78.7111 65.8458 76.9957 65.2277 76.1456 63.7442C75.9138 63.3269 75.6975 62.8788 75.4811 62.4307C72.9001 57.1766 66.471 54.7968 61.0773 57.0839C56.0699 59.1855 53.4117 65.444 54.6635 69.8018C56.1008 74.7623 59.3309 77.6211 63.5964 78.3165C68.2019 79.0891 72.0192 77.482 74.6929 73.5878C75.5275 72.3825 75.8675 70.8681 76.6711 69.6627C77.1502 68.921 78.0002 68.1638 78.8193 67.9629C79.9475 67.6693 80.473 68.7819 80.9212 69.6627C81.0448 69.9254 81.0603 70.2345 81.1684 70.5127C82.1266 73.0161 83.5794 75.1486 85.8821 76.5703C89.4367 78.7492 93.1922 78.8573 96.8241 76.8793ZM86.0367 81.1599C80.9984 81.1599 76.1611 81.1599 71.0765 81.1599C73.5802 85.5176 75.9911 89.7054 78.5566 94.1714C81.153 89.6591 83.5794 85.4558 86.0367 81.1599Z" fill="white"/>
<path d="M141.875 221.165C141.921 221.505 141.488 222.216 141.195 222.278C138.305 222.803 135.399 223.236 132.509 223.699C131.01 223.931 129.449 223.978 128.012 224.41C124.009 225.6 123.035 229.85 123.561 232.431C123.885 234.084 124.581 235.676 125.122 237.298C125.245 237.715 125.4 238.117 125.616 238.72C119.836 239.554 114.396 239.508 109.342 236.649C108.832 236.356 108.291 235.707 108.183 235.135C107.812 233.311 107.581 231.457 107.38 229.603C106.298 219.481 105.247 209.344 104.18 199.222C103.748 195.111 103.361 191.001 102.898 186.89C102.496 183.475 103.949 181.033 106.931 179.565C113.129 176.521 119.635 174.821 126.605 175.949C128.383 176.243 130.144 176.846 131.829 177.526C134.333 178.515 135.291 180.632 135.693 183.181C137.022 191.387 138.428 199.577 139.773 207.767C140.499 212.233 141.21 216.684 141.875 221.165Z" fill="white"/>
<path d="M121.521 158.503C123.174 162.412 124.812 166.353 126.482 170.355C122.324 172.225 117.719 173.57 112.99 174.481C102.233 176.552 91.5384 176.088 80.9364 173.461C75.96 172.225 71.1227 170.618 66.5944 168.161C64.9408 167.265 64.9099 166.523 66.5635 165.658C67.3363 165.24 68.3254 165.055 69.2217 165.086C74.2909 165.271 79.3601 165.472 84.4138 165.812C87.7984 166.059 90.7502 164.591 93.8103 163.649C100.518 161.562 107.163 159.306 113.84 157.127C114.071 157.05 114.319 156.973 114.551 157.004C116.637 157.282 118.723 157.591 120.794 157.931C121.057 157.977 121.412 158.24 121.521 158.503Z" fill="white"/>
<path d="M114.504 152.352C114.86 154.006 114.303 155.149 112.99 155.567C107.766 157.251 102.542 158.951 97.3185 160.651C94.0576 161.702 90.7966 162.752 87.4584 163.819C87.3656 163.618 87.3347 163.571 87.3193 163.525C87.0411 161.022 87.0411 161.006 89.3902 160.264C97.5349 157.684 105.664 155.103 113.809 152.522C114.041 152.445 114.272 152.414 114.504 152.352Z" fill="#F9DF4C"/>
<path d="M110.285 151.41C110.316 151.518 110.331 151.642 110.362 151.75C103.253 153.99 96.1285 156.231 89.2202 158.41C89.3747 156.942 89.622 155.613 89.5911 154.284C89.5602 152.986 89.2511 151.688 89.0193 150.143C96.2212 150.575 103.253 150.992 110.285 151.41Z" fill="#F9DF4C"/>
<path d="M102.728 66.5876C102.821 71.2081 100.811 74.7005 96.8241 76.8794C93.1922 78.8574 89.4367 78.7492 85.8821 76.5703C83.5794 75.1486 82.1266 73.0161 81.1684 70.5127C81.0602 70.2345 81.0448 69.9254 80.9212 69.6627C80.473 68.7819 79.9475 67.6693 78.8193 67.9629C78.0002 68.1638 77.1502 68.921 76.6711 69.6627C75.8674 70.8681 75.5274 72.3825 74.6929 73.5878C72.0192 77.482 68.2019 79.0892 63.5964 78.3165C59.3309 77.6211 56.1008 74.7623 54.6635 69.8018C53.4117 65.444 56.0699 59.1855 61.0772 57.0839C66.471 54.7968 72.9001 57.1766 75.4811 62.4307C75.6974 62.8788 75.9138 63.327 76.1456 63.7442C76.9956 65.2277 78.7111 65.8458 80.2411 65.135C80.5348 64.9959 80.7202 64.4859 80.8439 64.0996C81.8175 61.3644 83.2394 58.8919 85.8667 57.4702C89.514 55.4922 93.3622 55.3068 97.025 57.2848C100.641 59.2319 102.635 62.3843 102.728 66.5876ZM91.5386 75.2568C96.2677 75.195 99.9614 71.4553 99.915 66.7885C99.8687 62.4616 95.9277 58.6756 91.554 58.7683C87.0412 58.8765 83.4248 62.6161 83.5021 67.0821C83.5794 71.5326 87.2731 75.3031 91.5386 75.2568ZM65.42 75.674C69.361 75.6895 73.7347 72.2898 73.6729 67.422C73.7192 62.9406 69.9792 59.1083 65.5128 59.0619C61.2009 59.0155 57.3527 62.9252 57.3063 67.4066C57.2754 71.7489 61.0927 75.6586 65.42 75.674Z" fill="#2B2B37"/>
<path d="M99.9149 66.7884C99.9613 71.4553 96.2676 75.195 91.5384 75.2568C87.2729 75.3031 83.5792 71.5326 83.5019 67.0821C83.4247 62.6161 87.0411 58.8764 91.5539 58.7683C95.9276 58.6756 99.8685 62.4616 99.9149 66.7884ZM92.3266 70.3736C92.2493 70.3427 92.1721 70.2963 92.1102 70.2654C92.0484 69.7245 92.0948 69.1682 91.9248 68.6583C91.5693 67.5457 91.2602 66.2321 89.8075 66.1703C88.3702 66.1085 87.6438 67.3139 87.5666 68.4728C87.4893 69.9254 87.6438 71.5171 88.1693 72.8461C88.7411 74.2987 90.3484 74.3141 91.2139 73.0006C91.7239 72.228 91.9557 71.2544 92.3266 70.3736Z" fill="white"/>
<path d="M97.9676 234.563C99.8221 238.241 100.579 242.027 99.6058 246.23C98.9721 249.012 99.1421 251.979 98.9258 254.853C98.8639 255.548 98.7094 256.275 98.4776 256.924C98.1839 257.758 97.5812 258.515 97.4266 259.35C97.1485 260.88 96.2057 261.56 94.8612 262.054C86.531 265.16 78.2782 268.452 69.8863 271.372C60.5516 274.633 51.1087 277.585 41.3259 279.192C37.5549 279.81 33.7221 280.15 29.9203 280.613C25.3766 280.412 20.9565 279.964 16.7683 278.156C8.7318 274.695 3.78628 267.525 5.23903 258.438C6.33631 251.515 10.5864 246.601 15.9646 242.66C26.3193 235.104 38.1267 232.987 50.6605 234.13C53.396 234.378 56.0852 235.027 58.8052 235.382C59.3307 235.459 59.9179 235.088 60.4589 234.918C60.1343 234.532 59.887 234.022 59.4852 233.806C56.7652 232.461 54.447 230.653 53.1642 227.872C52.6388 226.728 52.4997 225.322 52.4688 224.039C52.4533 222.85 53.2415 221.938 54.5397 222C56.4406 222.077 58.3261 222.401 60.227 222.479C63.1634 222.618 66.1153 222.85 69.0363 222.633C72.6527 222.355 74.7081 223.746 74.7391 227.393C74.77 229.525 74.3681 231.689 73.889 233.775C73.41 235.815 73.6109 236.294 75.6973 236.572C80.581 237.221 85.3256 236.68 89.9002 234.841C90.9202 234.424 91.8784 233.775 92.8366 233.188C95.2321 231.704 96.6848 232.013 97.9676 234.563Z" fill="#F9DF4C"/>
<path d="M94.7068 135.941C94.5831 137.996 94.4595 139.866 94.3204 141.813C90.534 142.771 89.4985 144.78 90.1785 148.18C89.4213 148.257 88.6022 148.706 88.3703 147.438C87.644 143.405 86.9176 139.356 86.1294 135.029C88.9267 137.471 91.894 136.652 94.7068 135.941Z" fill="white"/>
<path d="M92.1103 70.2654C92.1721 70.2963 92.2494 70.3427 92.3266 70.3736C91.9557 71.2544 91.7239 72.2279 91.2139 73.0006C90.3484 74.3141 88.7411 74.2987 88.1693 72.8461C87.6438 71.5171 87.4893 69.9254 87.5666 68.4728C87.6438 67.3138 88.3702 66.1085 89.8075 66.1703C91.2603 66.2321 91.5694 67.5456 91.9248 68.6583C92.0948 69.1682 92.0484 69.7245 92.1103 70.2654Z" fill="white"/>
<path d="M92.2957 228.212C92.373 231.581 92.4348 231.611 89.3129 232.987C85.0165 234.872 80.4419 234.872 75.6509 234.98C76.0682 232.956 76.6246 231.241 76.6864 229.525C76.7482 227.795 76.5318 225.987 76.0218 224.333C75.2645 221.814 73.1936 220.763 70.6899 220.686C69.2217 220.624 67.7381 221.026 66.2853 220.918C63.0553 220.702 59.8407 220.331 56.6416 219.913C56.3788 219.883 56.0234 219.017 56.0388 218.554C56.1006 214.721 56.2243 210.873 56.3634 207.041C56.6261 199.423 56.8579 191.804 57.1825 184.186C57.3216 180.91 57.9398 177.711 60.3198 175.192C62.9316 172.441 66.3162 171.7 69.809 172.534C73.8891 173.508 77.8609 174.96 81.8483 176.32C84.2437 177.139 86.6392 178.051 88.4474 180.029C90.3329 182.069 91.3684 184.387 91.4302 187.184C91.7084 200.86 91.9866 214.536 92.2957 228.212Z" fill="white"/>
<path d="M87.7521 154.145C87.9685 155.443 88.1385 156.818 86.6703 157.9C86.2839 155.829 85.9285 153.867 85.573 151.904C84.1203 143.791 82.6521 135.663 81.1839 127.535C80.1793 121.879 79.2057 116.208 78.1547 110.567C77.5056 107.106 75.6202 105.545 72.0347 105.406C65.93 105.174 59.8254 105.02 53.7362 104.788C37.8487 104.17 21.9767 103.521 6.08921 102.872C6.04285 102.732 6.01194 102.593 5.96558 102.454C6.72286 102.253 7.4956 101.867 8.25288 101.883C19.4576 102.238 30.6777 102.655 41.8824 103.057C52.6544 103.443 63.4264 103.876 74.1983 104.216C78.2166 104.355 78.9893 105.081 79.6384 109.022C80.7666 115.713 82.0493 122.373 83.2548 129.049C84.7539 137.409 86.2685 145.769 87.7521 154.145Z" fill="#F9DF4C"/>
<path d="M71.0764 81.1599C76.161 81.1599 80.9984 81.1599 86.0366 81.1599C83.5793 85.4558 81.1529 89.6591 78.5565 94.1714C75.991 89.7054 73.5801 85.5176 71.0764 81.1599Z" fill="#2B2B37"/>
<path d="M85.2794 162.938C85.3257 163.865 85.0321 164.282 84.0275 164.22C74.3065 163.649 64.6009 163.092 54.8798 162.521C54.6017 162.505 54.3235 162.397 53.968 162.32C53.968 161.47 53.968 160.651 53.968 159.677C54.6326 159.677 55.2044 159.662 55.7762 159.693C65.2036 160.187 74.6156 160.713 84.043 161.161C85.4648 161.223 85.2484 162.057 85.2794 162.938Z" fill="#F9DF4C"/>
<path d="M84.6302 156.973C84.9239 158.595 84.182 159.43 82.5438 159.337C73.3019 158.812 64.06 158.271 54.8335 157.668C54.4007 157.637 53.8289 157.035 53.628 156.571C53.1644 155.443 53.0562 154.16 52.4843 153.094C50.738 149.849 47.6161 149.308 44.4942 151.642C42.6706 146.897 37.215 145.553 33.815 150.483C33.475 150.112 33.1504 149.756 32.8259 149.401C30.554 146.882 26.9685 147.067 25.2222 149.988C24.1712 151.765 23.553 153.805 22.5485 156.138C20.1994 155.953 17.3557 155.922 14.5893 155.412C13.7084 155.258 12.6265 153.929 12.3793 152.94C11.1892 148.087 10.2465 143.158 9.21103 138.259C8.2992 133.979 7.37191 129.714 6.46008 125.433C5.16188 119.329 3.87914 113.225 2.59639 107.121C2.27184 105.545 3.1064 104.664 4.86824 104.726C11.5138 104.942 18.1593 105.159 24.7894 105.406C37.0914 105.869 49.3779 106.364 61.6799 106.843C65.3118 106.982 68.9591 107.09 72.591 107.245C74.6928 107.337 76.0219 108.589 76.3928 110.66C77.7683 118.448 79.1747 126.237 80.5656 134.025C81.9257 141.674 83.3011 149.324 84.6302 156.973ZM43.4279 137.935C46.1479 137.935 48.2034 135.802 48.1879 133.005C48.1725 129.173 45.267 126.221 41.5269 126.252C38.8996 126.267 36.9369 128.385 36.9523 131.166C36.9523 134.921 39.8578 137.95 43.4279 137.935Z" fill="#F9DF4C"/>
<path d="M73.6727 67.422C73.7345 72.2898 69.3608 75.6894 65.4198 75.674C61.0925 75.6585 57.2752 71.7489 57.3061 67.4066C57.3525 62.9251 61.2007 59.0155 65.5126 59.0619C69.979 59.1082 73.719 62.9406 73.6727 67.422ZM69.9944 70.2808C69.6235 69.1837 69.4381 68.1483 68.959 67.2829C68.0626 65.6604 66.6253 65.7067 65.6826 67.3138C64.6007 69.1682 64.678 71.069 65.7753 72.877C66.5326 74.1596 67.9544 74.3605 68.8044 73.2015C69.4072 72.3825 69.6081 71.2698 69.9944 70.2808Z" fill="white"/>
<path d="M68.9591 67.283C69.4382 68.1483 69.6237 69.1837 69.9946 70.2809C69.6082 71.2699 69.4073 72.3825 68.8046 73.2015C67.9545 74.3605 66.5327 74.1596 65.7754 72.877C64.6781 71.069 64.6009 69.1682 65.6827 67.3139C66.6254 65.7067 68.0627 65.6604 68.9591 67.283Z" fill="white"/>
<path d="M59.3154 164.591C59.0372 166.554 58.2181 168.115 56.8581 169.135C55.4053 170.247 53.7517 171.221 52.0362 171.823C48.6362 173.029 45.0352 170.912 43.9843 167.095C42.7943 162.83 42.9952 158.565 44.7725 154.423C45.3752 152.986 46.4416 152.09 47.9871 152.028C49.4553 151.966 50.398 152.986 50.8462 154.207C51.4026 155.69 51.7735 157.282 52.0362 158.858C52.2062 159.909 52.0671 161.006 52.0517 162.088C52.0053 164.128 51.9898 164.128 54.0917 164.267C55.7917 164.39 57.4917 164.483 59.3154 164.591Z" fill="white"/>
<path d="M54.8335 172.735C54.4626 174.064 53.0871 175.764 51.2326 177.247C44.2006 182.919 36.1951 184.85 27.324 183.49C19.9058 182.347 13.4302 179.349 8.54652 173.492C4.91465 169.134 3.13735 163.942 2.44189 158.395C1.46824 150.544 2.96735 143.019 5.7183 135.694C5.87284 135.308 6.08921 134.921 6.46012 134.164C7.80469 140.469 9.08743 146.372 10.3084 152.275C10.6638 154.037 11.4366 155.474 12.8275 156.648C13.1984 156.957 13.4457 157.606 13.4611 158.101C13.5539 161.192 14.543 162.196 17.6803 162.304C19.1485 162.366 20.6321 162.521 22.1003 162.536C23.074 162.536 23.3985 162.969 23.6922 163.85C24.8049 167.28 26.7831 170 30.4459 171.02C31.3577 171.267 32.455 171.406 33.3359 171.143C34.5878 170.773 35.4223 171.143 36.3651 171.823C38.5133 173.384 40.9242 173.23 43.3043 172.565C44.4479 172.256 45.3597 172.256 46.457 172.874C49.1925 174.45 52.0207 174.049 54.8335 172.735Z" fill="white"/>
<path d="M48.1878 133.005C48.2033 135.802 46.1478 137.935 43.4278 137.935C39.8577 137.95 36.9522 134.921 36.9522 131.166C36.9368 128.385 38.8995 126.268 41.5268 126.252C45.2669 126.221 48.1724 129.173 48.1878 133.005Z" fill="#2B2B37"/>
<path d="M43.0261 153.326C43.057 153.697 42.9024 154.099 42.7788 154.47C40.9242 159.894 40.9088 165.225 43.6134 170.494C39.3788 172.318 35.8242 170.865 34.4178 166.477C32.8259 161.485 33.1041 156.494 35.4842 151.734C36.4578 149.787 38.0187 148.906 39.6878 149.215C41.2024 149.509 42.9179 151.564 43.0261 153.326Z" fill="white"/>
<path d="M32.7487 152.924C32.826 153.558 32.5014 154.238 32.3623 154.902C31.4041 159.785 31.3732 164.576 33.7687 169.227C30.245 170.51 26.9841 167.404 25.8559 164.869C24.0167 160.682 24.3568 156.432 25.9022 152.229C25.9795 152.043 26.0877 151.873 26.1959 151.719C27.0304 150.452 27.9886 149.277 29.6886 149.416C30.8478 149.524 32.5632 151.487 32.7487 152.924Z" fill="white"/>
<path d="M22.8267 157.977C22.8267 158.951 22.8267 159.77 22.8267 160.79C20.7558 160.682 18.7003 160.666 16.6912 160.404C15.1921 160.218 15.1921 158.982 15.3002 157.591C17.773 157.715 20.1994 157.838 22.8267 157.977Z" fill="#F9DF4C"/>
</g>
<defs>
<clipPath id="clip0_51_414">
<rect width="200" height="288" fill="white"/>
</clipPath>
</defs>
</svg>
