<svg width="208" height="288" viewBox="0 0 208 288" fill="none" xmlns="http://www.w3.org/2000/svg">
<g clip-path="url(#clip0_134_809)">
<path d="M9.98091 275.68C9.94764 275.63 9.89773 275.563 9.84783 275.513C3.11064 269.62 1.68002 260.015 5.53935 252.19C8.63347 245.931 13.5741 241.486 19.4961 238.074C24.7861 235.044 30.5584 233.429 36.5471 232.513C41.1217 231.814 45.713 231.381 50.3375 231.964C50.4207 231.981 50.5039 231.931 50.6536 231.914C50.5704 231.231 50.454 230.582 50.4207 229.916C50.3708 228.302 50.2377 226.67 50.3375 225.055C50.5371 221.976 51.5186 220.744 54.4297 219.678C54.6127 213.768 54.7957 207.842 54.9787 201.799C54.5628 201.982 54.2467 202.132 53.9307 202.265C49.1065 204.213 44.299 204.346 39.558 201.999C37.462 200.95 35.8318 199.418 34.6673 197.404C32.8042 194.241 33.1202 191.095 34.9667 188.032C35.1664 187.682 35.4325 187.349 35.6987 186.983C35.4491 186.75 35.2163 186.533 35 186.334C32.1887 183.653 30.3588 180.457 30.1426 176.495C30.1093 175.896 29.7932 175.796 29.3275 175.663C21.1597 173.449 14.1896 169.253 8.81646 162.694C2.49514 154.97 -0.366085 146.047 0.598747 136.059C1.21424 129.566 3.55978 123.69 7.03651 118.213C11.3949 111.321 16.8844 105.477 23.3887 100.583C23.8046 100.267 23.971 99.9339 23.9876 99.4012C25.1188 63.5096 50.8199 33.5776 86.1195 27.0519C126.626 19.5772 166.084 46.496 173.886 86.9823C175.183 93.6579 175.699 100.417 175.134 107.209C175.084 107.891 175.433 108.058 175.899 108.308C187.011 114.084 195.944 122.208 202.182 133.145C205.343 138.672 207.189 144.649 207.139 151.075C207.056 160.247 203.513 167.988 197.025 174.381C191.636 179.691 185.164 183.204 177.978 185.435C175.333 186.267 172.672 187.016 170.01 187.765C168.363 188.231 166.899 188.981 165.652 190.196C163.439 192.36 160.927 194.025 157.833 194.691C157.633 194.741 157.384 195.073 157.351 195.307C157.251 196.472 156.735 197.437 155.987 198.303C153.824 200.8 150.979 201.866 147.802 202.265C145.507 202.565 143.228 202.382 140.815 201.866C141.947 208.375 143.078 214.801 144.192 221.26C144.392 221.26 144.592 221.276 144.775 221.26C148.335 220.96 150.68 222.775 151.096 226.337C151.312 228.252 151.179 230.183 151.196 232.114C151.196 232.613 151.113 233.096 151.079 233.562C153.408 233.346 155.637 233.063 157.9 232.946C166.799 232.447 175.45 233.529 183.518 237.591C190.887 241.303 196.31 246.83 198.872 254.854C200.469 259.898 200.602 264.926 198.456 269.887C198.156 270.536 197.807 271.185 197.458 271.884C197.524 271.984 197.607 272.117 197.707 272.234C199.321 274.148 199.504 276.013 198.306 278.21C197.258 280.141 195.645 281.49 193.698 282.472C190.238 284.22 186.512 285.119 182.703 285.602C174.801 286.617 166.883 286.417 158.998 285.568C142.795 283.82 127.058 280.025 111.754 274.481C108.876 273.432 106.131 271.967 103.403 270.569C102.305 270.003 101.357 269.121 100.392 268.322C99.9931 267.972 99.6937 267.939 99.2112 268.139C83.0919 274.947 66.5068 280.408 49.5723 284.803C44.2491 286.168 38.8427 287.033 33.3365 287.316C33.1036 287.333 32.8541 287.4 32.6046 287.45C31.4401 287.45 30.259 287.45 29.0779 287.45C27.3978 287.283 25.6677 287.216 24.0042 286.917C21.0432 286.384 18.0655 285.835 15.171 285.019C13.7404 284.619 12.3764 283.737 11.1454 282.838C9.43195 281.606 8.89963 279.742 9.18243 277.694C9.28224 277.045 9.68148 276.429 9.98091 275.68ZM194.73 173.782C204.245 164.725 207.389 153.871 203.513 141.219C201.384 134.294 197.358 128.451 192.417 123.24C185.63 116.049 177.729 110.505 168.313 107.259C167.997 107.142 167.798 106.693 167.531 106.41C167.847 106.143 168.13 105.727 168.48 105.644C170.476 105.194 171.79 103.996 172.638 102.198C173.32 100.733 173.537 99.1848 173.404 97.6033C173.021 92.8588 172.372 88.1643 171.158 83.5363C167.332 68.7701 159.829 56.2014 148.335 46.1464C134.161 33.7441 117.51 27.7844 98.7621 27.6678C92.3243 27.6346 86.003 28.65 79.8148 30.4313C66.7397 34.1936 55.3613 40.8359 46.0457 50.791C40.0571 57.2002 35.1164 64.3253 31.8227 72.4991C30.5252 75.7287 29.394 79.0415 28.4292 82.4043C27.5641 85.3842 26.9819 88.4306 26.4496 91.4937C26.1169 93.3582 26.1003 95.2727 26.0004 97.1705C25.5679 104.995 26.1003 112.736 28.1796 120.31C32.2386 135.126 39.924 147.712 51.635 157.7C63.5291 167.872 77.3029 173.748 92.9066 175.163C101.191 175.912 109.392 175.33 117.46 173.249C119.473 172.716 121.469 172.1 123.565 171.501C122.766 169.12 122.766 166.823 123.249 164.509C124.131 160.164 126.143 156.485 130.019 154.154C131.367 153.339 132.698 152.656 133.313 151.108C133.363 150.975 133.463 150.875 133.563 150.775C137.056 146.963 141.381 145.215 146.521 145.381C149.765 145.464 152.876 146.297 155.987 147.096C156.469 147.229 156.785 147.179 156.951 146.68C157.517 145.032 158.166 143.433 158.598 141.769C158.964 140.37 158.632 138.989 158.099 137.657C157.966 137.307 157.767 136.658 157.883 136.575C158.232 136.342 158.781 136.159 159.164 136.258C160.561 136.658 161.992 137.024 163.273 137.657C166.001 139.039 168.147 141.053 169.112 144.049C169.894 146.413 168.945 148.411 166.7 149.426C165.119 150.142 163.456 150.409 161.776 150.159C159.646 149.859 157.534 149.443 155.438 148.96C152.044 148.161 148.684 147.246 145.124 147.329C141.381 147.412 138.237 148.794 135.575 151.391C135.243 151.74 134.927 152.107 134.594 152.456C135.875 152.623 137.056 152.723 138.237 152.906C138.836 153.006 139.701 153.072 139.535 153.971C139.385 154.804 138.62 154.587 138.004 154.554C135.259 154.387 132.581 154.537 130.269 156.335C126.36 159.398 124.879 163.543 124.879 168.354C124.879 168.987 124.979 169.636 125.062 170.502C127.191 168.521 129.603 167.705 132.065 167.089C133.546 166.723 135.093 166.607 136.607 166.49C136.873 166.473 137.189 167.006 137.488 167.272C137.222 167.522 136.973 167.955 136.69 167.972C134.328 168.121 132.182 169.037 130.019 169.836C126.593 171.101 124.363 173.482 123.582 177.094C122.534 181.922 123.465 186.367 126.343 190.396C129.154 194.291 133.03 196.771 137.355 198.636C140.832 200.151 144.425 200.867 148.218 200.267C150.414 199.901 152.41 199.119 154.157 197.404C153.841 197.337 153.708 197.288 153.575 197.271C150.297 196.938 147.17 196.022 144.159 194.707C140.2 192.976 136.623 190.662 133.546 187.615C133.163 187.233 132.764 186.766 133.263 186.234C133.812 185.651 134.261 186.134 134.694 186.5C135.509 187.183 136.291 187.915 137.156 188.514C141.547 191.594 146.421 193.276 151.811 193.375C156.452 193.459 160.711 192.493 164.088 189.03C165.735 187.332 167.748 186.334 170.01 185.751C172.106 185.202 174.169 184.586 176.215 183.953C183.102 181.855 189.456 178.792 194.73 173.782ZM197.275 267.123C198.705 262.112 197.924 257.285 195.828 252.64C192.783 245.931 187.51 241.503 180.889 238.606C172.239 234.811 163.156 234.195 153.907 235.327C150.663 235.71 147.486 236.492 144.259 237.091C143.76 237.191 143.194 237.274 142.995 236.625C142.812 236.043 143.128 235.643 143.66 235.343C144.442 234.877 145.24 234.394 145.989 233.845C148.268 232.147 149.249 229.783 149.266 227.003C149.283 224.24 147.386 222.691 144.675 223.207C143.91 223.357 143.161 223.624 142.396 223.773C140.1 224.24 137.805 224.756 135.492 225.089C133.812 225.338 132.099 225.288 130.402 225.488C127.408 225.838 125.628 227.736 125.628 230.682C125.628 233.412 126.343 235.959 128.006 238.223C128.156 238.423 128.006 238.972 127.84 239.289C127.74 239.489 127.391 239.588 127.125 239.688C125.195 240.537 123.132 240.737 121.07 240.77C116.046 240.837 111.205 240.321 107.246 236.742C107.08 236.592 106.514 236.625 106.348 236.808C105.716 237.441 105.1 238.107 104.651 238.856C102.355 242.818 101.357 247.146 101.074 251.674C100.758 257.168 103.12 261.18 107.911 263.66C110.673 265.109 113.567 266.407 116.512 267.389C128.273 271.318 140.316 274.182 152.527 276.379C158.698 277.478 164.886 278.36 170.925 278.31C171.757 278.31 172.356 278.31 172.938 278.31C178.76 278.194 184.466 277.361 189.939 275.28C193.798 273.799 196.16 271.019 197.275 267.123ZM166.334 147.445C167.348 146.996 167.681 146.08 167.415 144.982C166.999 143.234 165.901 141.919 164.604 140.786C162.957 143.15 161.36 145.431 159.763 147.728C159.746 147.762 159.763 147.828 159.746 148.045C160.894 148.128 162.058 148.361 163.206 148.261C164.271 148.178 165.352 147.862 166.334 147.445ZM142.329 221.809C141.281 215.183 140.25 208.641 139.252 202.099C139.169 201.533 139.002 201.3 138.47 201.116C135.642 200.134 132.947 198.819 130.502 197.071C124.879 193.092 121.352 187.898 121.169 180.773C121.12 178.709 120.055 177.694 117.842 177.56C114.15 177.311 110.689 178.243 107.379 179.791C103.986 181.373 102.921 183.42 103.337 187.133C104.002 193.309 104.668 199.468 105.316 205.645C106.281 214.734 107.246 223.823 108.194 232.913C108.494 235.859 108.677 236.109 111.188 237.191C115.68 239.106 120.354 239.222 125.112 238.556C125.378 238.523 125.661 238.423 125.994 238.34C125.811 237.99 125.694 237.741 125.561 237.491C124.63 235.743 123.997 233.912 123.781 231.931C123.299 227.552 125.744 224.306 130.103 223.64C131.067 223.49 132.049 223.457 133.03 223.424C136.191 223.307 139.302 222.858 142.329 221.809ZM102.172 239.272C103.27 237.308 104.285 235.427 106.447 234.611C104.518 215.533 102.588 196.505 100.658 177.311C98.2963 177.311 95.9674 177.311 93.5221 177.311C93.389 194.807 94.1209 212.387 94.3705 230.05C96.1338 229.733 97.5145 230.333 98.6457 231.481C99.9931 232.846 100.891 234.494 101.424 236.326C101.707 237.241 101.906 238.19 102.172 239.272ZM100.459 243.867C100.542 243.584 100.609 243.267 100.575 242.968C100.359 241.37 100.159 239.755 99.8434 238.157C99.4608 236.209 98.6623 234.428 97.2816 232.963C96.0173 231.614 94.9527 231.614 93.4888 232.663C92.3077 233.495 91.0601 234.295 89.7126 234.794C84.9384 236.609 79.9645 236.875 74.9241 236.176C74.1256 236.059 73.743 235.41 73.9593 234.544C74.0591 234.145 74.2254 233.762 74.3419 233.362C75.1237 230.948 75.523 228.518 75.0239 226.004C74.5415 223.524 73.1608 222.375 70.6655 222.325C70.05 222.325 69.4345 222.342 68.819 222.425C65.6417 222.858 62.4811 222.775 59.3371 222.025C58.0229 221.726 56.6256 221.626 55.2615 221.626C53.3817 221.626 52.4834 222.708 52.5333 224.589C52.5832 226.687 53.4982 228.418 54.8456 229.95C56.3261 231.648 58.0728 233.029 60.2354 233.828C60.5182 233.928 60.6512 234.428 60.8509 234.761C60.5182 234.927 60.2021 235.177 59.8361 235.26C59.57 235.31 59.2373 235.144 58.9378 235.094C55.3779 234.561 51.8347 233.762 48.2581 233.562C40.8888 233.146 33.7025 234.345 26.7324 236.725C19.7789 239.122 13.94 243.118 9.48186 249.011C6.38774 253.089 4.74087 257.684 5.23992 262.878C5.83878 269.187 9.2157 273.682 14.5722 276.779C19.3963 279.575 24.7029 280.341 30.7913 280.291C31.8726 280.225 33.586 280.158 35.2828 279.975C42.5024 279.176 49.539 277.528 56.5091 275.547C70.2497 271.635 83.5743 266.574 96.7992 261.213C97.0487 261.113 97.3149 260.747 97.3814 260.448C97.7307 258.999 98.1632 257.601 99.1281 256.402C99.2944 256.202 99.4109 255.836 99.3776 255.57C98.8286 251.591 99.3776 247.712 100.459 243.867ZM92.0748 231.564C92.5572 231.298 92.7569 230.998 92.707 230.382C92.5073 228.118 92.3576 225.854 92.3077 223.59C92.0748 211.255 91.8918 198.902 91.6589 186.567C91.6423 185.784 91.5259 185.002 91.3096 184.253C90.3614 180.94 88.1157 178.643 85.0715 177.277C82.0273 175.912 78.85 174.83 75.6893 173.698C73.3937 172.883 71.0481 172.25 68.6028 172.1C63.5125 171.751 59.4036 174.631 58.1726 179.575C57.8066 181.073 57.5238 182.638 57.4407 184.203C57.2244 188.248 57.108 192.31 56.9915 196.372C56.7753 203.164 56.5923 209.956 56.3927 216.765C56.376 217.714 56.3927 218.646 56.3927 219.578C57.6736 219.811 58.9545 219.978 60.2021 220.261C62.714 220.844 65.2259 220.927 67.7877 220.594C68.8523 220.461 69.9502 220.394 71.0481 220.427C73.8262 220.511 75.7392 221.942 76.6209 224.573C77.2696 226.437 77.3694 228.368 77.0035 230.283C76.7373 231.731 76.2549 233.129 75.839 234.661C78.9498 234.777 82.0605 234.594 85.1546 234.062C87.6166 233.629 89.9123 232.796 92.0748 231.564ZM53.5314 194.99C54.7458 190.129 54.7125 185.168 54.4963 180.207C54.3632 176.961 53.8641 173.748 52.866 170.652C51.3522 165.924 48.7905 161.879 45.3803 158.266C41.8869 154.57 39.0257 150.392 36.9463 145.714C36.8299 145.464 36.4972 145.281 36.231 145.115C34.817 144.299 33.2367 143.666 31.9891 142.651C29.1944 140.404 28.5789 137.041 30.1259 133.445C30.4254 132.779 30.4254 132.246 30.1592 131.547C29.0779 128.767 27.98 125.97 27.115 123.124C26.0836 119.744 25.335 116.298 24.3702 112.919C24.0541 111.737 23.5884 110.572 23.0061 109.506C21.6421 107.042 19.5793 106.676 17.3502 108.407C17.0841 108.624 16.8512 108.857 16.6183 109.09C14.0399 111.687 11.7775 114.517 9.71475 117.53C5.88869 123.09 3.17718 129.133 2.46187 135.909C1.51367 144.665 3.80931 152.623 8.86636 159.764C12.9586 165.541 18.548 169.47 24.9691 172.267C26.6159 172.999 28.3294 173.582 30.0594 174.264C30.3089 172.916 30.4586 171.717 30.7581 170.569C30.8412 170.252 31.3403 169.869 31.6564 169.836C32.222 169.803 32.3384 170.319 32.2885 170.802C32.222 171.334 32.1388 171.85 32.0722 172.383C31.7063 175.579 31.8061 178.709 33.5195 181.572C35.7819 185.418 39.2253 187.615 43.4839 188.648C43.9829 188.781 44.5152 188.897 44.5485 189.53C44.5652 190.196 43.9996 190.296 43.5171 190.429C40.9387 191.161 38.4767 190.762 35.9316 189.68C35.4325 191.012 35.0499 192.327 35.1996 193.708C35.4159 195.606 36.3641 197.154 37.6782 198.47C40.0072 200.8 42.9516 201.666 46.1621 201.949C48.5409 202.165 50.3541 201.2 51.5851 199.302C52.4335 197.987 53.1655 196.505 53.5314 194.99ZM36.1977 143.084C34.6507 140.37 33.1036 137.64 31.5233 134.843C30.0428 139.022 32.8541 141.935 36.1977 143.084Z" fill="#2B2B37"/>
<path d="M203.513 141.219C207.389 153.871 204.245 164.725 194.729 173.782C189.456 178.792 183.102 181.855 176.215 183.953C174.169 184.586 172.106 185.202 170.01 185.751C167.747 186.334 165.735 187.332 164.088 189.03C160.711 192.493 156.452 193.459 151.811 193.375C146.421 193.276 141.547 191.594 137.156 188.514C136.291 187.915 135.509 187.183 134.694 186.5C134.261 186.134 133.812 185.651 133.263 186.234C132.764 186.766 133.163 187.233 133.546 187.615C136.623 190.662 140.2 192.976 144.159 194.707C147.17 196.022 150.297 196.938 153.574 197.271C153.707 197.288 153.841 197.337 154.157 197.404C152.41 199.119 150.414 199.901 148.218 200.267C144.425 200.867 140.832 200.151 137.355 198.636C133.03 196.771 129.154 194.291 126.343 190.396C123.465 186.367 122.533 181.922 123.581 177.094C124.363 173.482 126.592 171.101 130.019 169.836C132.182 169.037 134.328 168.121 136.69 167.972C136.973 167.955 137.222 167.522 137.488 167.272C137.189 167.006 136.873 166.473 136.607 166.49C135.093 166.607 133.546 166.723 132.065 167.089C129.603 167.705 127.191 168.521 125.062 170.502C124.979 169.636 124.879 168.987 124.879 168.354C124.879 163.543 126.359 159.398 130.269 156.335C132.581 154.537 135.259 154.387 138.004 154.554C138.619 154.587 139.385 154.804 139.534 153.971C139.701 153.072 138.836 153.006 138.237 152.906C137.056 152.723 135.875 152.623 134.594 152.456C134.927 152.107 135.243 151.74 135.575 151.391C138.237 148.794 141.381 147.412 145.124 147.329C148.684 147.246 152.044 148.161 155.438 148.96C157.534 149.443 159.646 149.859 161.775 150.159C163.456 150.409 165.119 150.142 166.699 149.426C168.945 148.411 169.893 146.413 169.112 144.049C168.147 141.053 166.001 139.039 163.273 137.657C161.992 137.024 160.561 136.658 159.164 136.258C158.781 136.159 158.232 136.342 157.883 136.575C157.766 136.658 157.966 137.307 158.099 137.657C158.631 138.989 158.964 140.37 158.598 141.769C158.166 143.433 157.517 145.032 156.951 146.68C156.785 147.179 156.469 147.229 155.986 147.096C152.876 146.297 149.765 145.464 146.521 145.381C141.381 145.215 137.056 146.963 133.562 150.775C133.463 150.875 133.363 150.975 133.313 151.108C132.697 152.656 131.367 153.339 130.019 154.154C126.143 156.485 124.13 160.164 123.249 164.509C122.766 166.823 122.766 169.12 123.565 171.501C121.469 172.1 119.473 172.716 117.46 173.249C109.392 175.33 101.191 175.912 92.9064 175.163C77.3027 173.748 63.5289 167.872 51.6349 157.7C39.9238 147.712 32.2384 135.126 28.1795 120.31C26.1001 112.736 25.5678 104.995 26.0003 97.1705C26.1001 95.2727 26.1167 93.3582 26.4494 91.4937C26.9818 88.4306 27.564 85.3842 28.429 82.4043C29.3938 79.0415 30.525 75.7287 31.8225 72.4991C35.1163 64.3253 40.0569 57.2002 46.0455 50.791C55.3611 40.8359 66.7395 34.1936 79.8146 30.4313C86.0029 28.65 92.3242 27.6346 98.7619 27.6678C117.51 27.7844 134.161 33.7441 148.334 46.1464C159.829 56.2014 167.332 68.7701 171.158 83.5363C172.372 88.1643 173.021 92.8588 173.403 97.6033C173.536 99.1848 173.32 100.733 172.638 102.198C171.79 103.996 170.476 105.194 168.479 105.644C168.13 105.727 167.847 106.143 167.531 106.41C167.797 106.693 167.997 107.142 168.313 107.259C177.728 110.505 185.63 116.049 192.417 123.24C197.358 128.451 201.383 134.294 203.513 141.219Z" fill="white"/>
<path d="M195.828 252.64C197.924 257.284 198.705 262.112 197.275 267.123C196.16 271.019 193.798 273.799 189.939 275.28C184.466 277.361 178.76 278.194 172.938 278.31C172.356 278.31 171.757 278.31 170.925 278.31C164.886 278.36 158.698 277.478 152.527 276.379C140.316 274.182 128.273 271.318 116.512 267.389C113.567 266.407 110.673 265.109 107.911 263.66C103.121 261.18 100.758 257.168 101.074 251.674C101.357 247.146 102.355 242.818 104.651 238.856C105.1 238.107 105.716 237.441 106.348 236.808C106.514 236.625 107.08 236.592 107.246 236.742C111.205 240.321 116.046 240.837 121.07 240.77C123.132 240.737 125.195 240.537 127.125 239.688C127.391 239.588 127.74 239.488 127.84 239.289C128.007 238.972 128.156 238.423 128.007 238.223C126.343 235.959 125.628 233.412 125.628 230.682C125.628 227.735 127.408 225.838 130.402 225.488C132.099 225.288 133.812 225.338 135.492 225.089C137.805 224.756 140.1 224.24 142.396 223.773C143.161 223.624 143.91 223.357 144.675 223.207C147.386 222.691 149.283 224.24 149.266 227.003C149.249 229.783 148.268 232.147 145.989 233.845C145.24 234.394 144.442 234.877 143.66 235.343C143.128 235.643 142.812 236.042 142.995 236.625C143.194 237.274 143.76 237.191 144.259 237.091C147.486 236.492 150.663 235.71 153.907 235.327C163.156 234.195 172.239 234.811 180.889 238.606C187.51 241.503 192.783 245.931 195.828 252.64Z" fill="#F9DF4C"/>
<path d="M139.252 202.099C140.25 208.641 141.281 215.184 142.329 221.809C139.302 222.858 136.191 223.307 133.03 223.424C132.049 223.457 131.067 223.491 130.103 223.64C125.744 224.306 123.299 227.552 123.781 231.931C123.998 233.912 124.63 235.743 125.561 237.491C125.694 237.741 125.811 237.99 125.994 238.34C125.661 238.423 125.378 238.523 125.112 238.556C120.355 239.222 115.68 239.106 111.189 237.191C108.677 236.109 108.494 235.859 108.194 232.913C107.246 223.823 106.281 214.734 105.316 205.645C104.668 199.468 104.002 193.309 103.337 187.133C102.921 183.42 103.986 181.373 107.379 179.791C110.69 178.243 114.15 177.311 117.843 177.561C120.055 177.694 121.12 178.709 121.17 180.773C121.353 187.899 124.879 193.092 130.502 197.071C132.947 198.819 135.642 200.134 138.47 201.116C139.002 201.3 139.169 201.533 139.252 202.099Z" fill="white"/>
<path d="M100.575 242.968C100.609 243.267 100.542 243.584 100.459 243.867C99.3777 247.712 98.8287 251.591 99.3777 255.57C99.411 255.836 99.2945 256.202 99.1282 256.402C98.1633 257.601 97.7308 258.999 97.3815 260.448C97.315 260.747 97.0488 261.113 96.7993 261.213C83.5744 266.574 70.2498 271.635 56.5092 275.547C49.5391 277.528 42.5025 279.176 35.2829 279.975C33.5861 280.158 31.8727 280.225 30.7914 280.291C24.703 280.341 19.3964 279.575 14.5723 276.779C9.2158 273.682 5.83889 269.187 5.24003 262.878C4.74098 257.684 6.38785 253.089 9.48196 249.011C13.9402 243.118 19.7791 239.122 26.7325 236.725C33.7026 234.345 40.8889 233.146 48.2582 233.562C51.8348 233.762 55.378 234.561 58.9379 235.094C59.2374 235.144 59.5701 235.31 59.8362 235.26C60.2022 235.177 60.5183 234.927 60.851 234.761C60.6513 234.428 60.5183 233.928 60.2355 233.828C58.0729 233.029 56.3262 231.648 54.8457 229.95C53.4983 228.418 52.5833 226.687 52.5334 224.589C52.4835 222.708 53.3818 221.626 55.2616 221.626C56.6257 221.626 58.023 221.726 59.3372 222.025C62.4812 222.775 65.6418 222.858 68.8191 222.425C69.4346 222.342 70.0501 222.325 70.6656 222.325C73.1609 222.375 74.5416 223.524 75.024 226.004C75.5231 228.518 75.1238 230.948 74.342 233.362C74.2255 233.762 74.0592 234.145 73.9594 234.544C73.7431 235.41 74.1257 236.059 74.9242 236.176C79.9646 236.875 84.9385 236.609 89.7127 234.794C91.0602 234.295 92.3078 233.496 93.4889 232.663C94.9528 231.614 96.0174 231.614 97.2817 232.963C98.6624 234.428 99.4609 236.209 99.8435 238.157C100.16 239.755 100.359 241.37 100.575 242.968Z" fill="#F9DF4C"/>
<path d="M92.7069 230.382C92.7568 230.998 92.5572 231.298 92.0748 231.564C89.9122 232.796 87.6166 233.629 85.1546 234.062C82.0605 234.594 78.9498 234.777 75.839 234.661C76.2549 233.129 76.7373 231.731 77.0035 230.283C77.3694 228.368 77.2696 226.437 76.6209 224.573C75.7392 221.942 73.8262 220.511 71.0481 220.427C69.9502 220.394 68.8523 220.461 67.7876 220.594C65.2259 220.927 62.714 220.844 60.2021 220.261C58.9544 219.978 57.6735 219.811 56.3926 219.578C56.3926 218.646 56.376 217.714 56.3926 216.765C56.5923 209.956 56.7752 203.164 56.9915 196.372C57.1079 192.31 57.2244 188.248 57.4407 184.203C57.5238 182.638 57.8066 181.073 58.1726 179.575C59.4036 174.631 63.5124 171.751 68.6028 172.1C71.0481 172.25 73.3937 172.883 75.6893 173.698C78.8499 174.83 82.0272 175.912 85.0715 177.277C88.1157 178.643 90.3614 180.94 91.3096 184.253C91.5258 185.002 91.6423 185.784 91.6589 186.567C91.8918 198.902 92.0748 211.255 92.3077 223.59C92.3576 225.854 92.5073 228.118 92.7069 230.382Z" fill="white"/>
<path d="M54.4962 180.207C54.7125 185.168 54.7458 190.129 53.5314 194.99C53.1654 196.505 52.4335 197.987 51.5851 199.302C50.3541 201.2 48.5409 202.165 46.1621 201.949C42.9515 201.666 40.0071 200.8 37.6782 198.469C36.3641 197.154 35.4159 195.606 35.1996 193.708C35.0499 192.327 35.4325 191.011 35.9315 189.68C38.4767 190.762 40.9387 191.161 43.5171 190.429C43.9995 190.296 44.5651 190.196 44.5485 189.53C44.5152 188.897 43.9829 188.781 43.4839 188.648C39.2253 187.615 35.7818 185.418 33.5195 181.572C31.8061 178.709 31.7062 175.579 32.0722 172.383C32.1388 171.85 32.2219 171.334 32.2885 170.802C32.3384 170.319 32.2219 169.803 31.6563 169.836C31.3403 169.869 30.8412 170.252 30.758 170.569C30.4586 171.717 30.3089 172.916 30.0594 174.264C28.3293 173.582 26.6159 172.999 24.9691 172.267C18.5479 169.47 12.9586 165.541 8.86634 159.764C3.80928 152.623 1.51365 144.665 2.46185 135.909C3.17715 129.133 5.88867 123.09 9.71472 117.53C11.7775 114.517 14.0398 111.687 16.6183 109.09C16.8512 108.857 17.084 108.624 17.3502 108.407C19.5793 106.676 21.642 107.042 23.0061 109.506C23.5883 110.572 24.0541 111.737 24.3702 112.919C25.335 116.298 26.0836 119.744 27.115 123.124C27.98 125.97 29.0779 128.767 30.1592 131.547C30.4253 132.246 30.4253 132.779 30.1259 133.445C28.5789 137.041 29.1944 140.404 31.989 142.651C33.2367 143.666 34.817 144.299 36.231 145.115C36.4971 145.281 36.8298 145.464 36.9463 145.714C39.0257 150.392 41.8869 154.57 45.3802 158.266C48.7904 161.879 51.3522 165.924 52.866 170.652C53.8641 173.748 54.3632 176.961 54.4962 180.207Z" fill="white"/>
<path d="M80.8129 64.808C82.3101 59.5475 85.4873 55.9683 91.3096 55.6187C97.1152 55.2858 102.139 59.2478 102.921 64.5583C103.869 70.9343 100.409 76.2614 94.3705 77.6931C88.831 79.0082 83.0919 75.7453 81.3452 69.9188C80.7131 67.8545 79.6484 67.1387 78.0182 68.0043C77.1366 68.4705 76.7373 69.9854 76.2882 71.1007C74.0092 76.894 67.5714 79.7407 61.7491 77.4933C56.0766 75.3125 53.1987 68.9532 55.2947 63.2265C56.8252 59.0148 60.9008 55.8684 65.3922 55.8684C70.0334 55.8684 73.7097 57.8828 75.8556 62.1944C77.3528 65.2409 77.3528 65.2409 80.8129 64.808ZM91.9251 74.8297C96.4997 74.8464 100.143 71.2506 100.159 66.6892C100.176 62.261 96.35 58.4654 91.8918 58.5154C87.5667 58.5653 83.8737 62.2277 83.8072 66.5727C83.724 71.0841 87.3837 74.8131 91.9251 74.8297ZM65.8913 58.8649C61.5329 58.815 57.607 62.6938 57.5904 67.0721C57.5737 71.3338 61.3 75.2126 65.5253 75.3125C69.9502 75.429 73.8428 71.6834 73.926 67.2386C74.0092 62.7271 70.3495 58.9149 65.8913 58.8649Z" fill="#2B2B37"/>
<path d="M132.049 25.2707H126.942C123.449 13.6342 113.218 4.31166 100.692 2.64693C100.692 2.63028 100.709 2.59698 100.709 2.58034C100.709 1.14867 98.6624 0 96.1505 0C93.622 0 91.5925 1.14867 91.5925 2.56369C91.5925 2.63028 91.6258 2.71352 91.6258 2.7801C79.5987 4.82773 69.8672 13.9671 66.4903 25.254H61.3833C58.4389 25.254 56.0435 27.6512 56.0435 30.5978C56.0435 33.5444 58.4389 35.9416 61.3833 35.9416H132.066C135.01 35.9416 137.405 33.5444 137.405 30.5978C137.372 27.6512 134.993 25.2707 132.049 25.2707Z" fill="#2B2B37"/>
<path d="M78.8498 93.9909L71.2144 80.7562H86.4853L78.8498 93.9909Z" fill="#2B2B37"/>
</g>
<defs>
<clipPath id="clip0_134_809">
<rect width="207.555" height="287.866" fill="white"/>
</clipPath>
</defs>
</svg>
