<svg width="208" height="288" viewBox="0 0 208 288" fill="none" xmlns="http://www.w3.org/2000/svg">
<path d="M204.957 146.844C206.173 155.462 203.942 163.126 198.556 169.882C194.74 174.653 189.969 178.238 184.491 180.885C184.137 181.055 183.768 181.209 183.414 181.347C183.322 181.393 183.23 181.378 182.937 181.409C184.907 178.238 186.83 175.176 187.338 171.528C188.431 163.464 185.938 154.431 177.736 149.475C175.443 148.09 172.95 147.013 170.581 145.72C170.057 145.428 169.488 144.889 169.319 144.351C168.134 140.442 163.41 136.656 159.332 136.425C158.316 136.363 157.885 136.656 158.362 137.687C158.47 137.918 158.593 138.149 158.593 138.379C158.639 139.657 159.04 141.088 158.578 142.15C157.962 143.581 156.408 142.596 155.316 142.535C140.574 141.611 126.663 144.535 113.737 151.753C107.936 155 102.827 159.125 99.0724 164.742C96.9488 167.912 95.7794 171.405 95.3639 175.468C93.3173 175.237 91.286 175.053 89.2702 174.776C83.0996 173.945 77.1598 172.236 71.4047 169.897C70.1891 169.405 69.8351 168.758 69.6043 167.358C69.1581 164.757 69.8505 162.803 71.0508 160.556C73.7437 155.523 70.6199 148.86 64.8186 146.444C64.3724 146.259 63.9107 146.09 63.3568 145.874C64.0646 142.75 64.7725 139.657 65.4803 136.563C65.4803 136.517 65.5111 136.471 65.5111 136.41C65.8496 134.732 65.7727 132.762 66.6498 131.439C67.4808 130.208 69.3889 129.746 70.743 128.838C74.7439 126.145 76.4212 122.113 76.7905 117.542C77.3291 111.109 75.2825 105.415 71.2047 100.46C70.8507 100.029 70.1891 99.8286 69.6659 99.5362C69.435 100.059 69.0196 100.598 69.0042 101.137C68.8965 103.999 67.4808 106.184 65.4495 108.016C64.1416 109.201 62.6951 110.232 61.3717 111.402C56.4937 115.726 55.4012 120.774 58.0941 126.699C58.5557 127.714 58.5095 128.453 58.0171 129.423C56.3244 132.731 54.7241 136.102 53.0468 139.549C47.6456 136.994 42.4752 137.902 37.3818 140.826C36.9509 140.134 36.4739 139.457 36.0738 138.733C29.0415 125.852 25.2098 112.233 26.3024 97.4278C27.8258 76.8366 36.0584 59.508 51.6465 45.9036C55.355 42.6564 59.5867 39.9479 63.8492 37.424C65.7419 36.3159 68.2502 36.1466 70.5122 35.7927C80.022 34.3615 89.5626 33.6228 99.1801 34.1306C113.183 34.8539 126.509 38.1319 138.881 44.7186C144.59 47.7657 149.991 51.3977 155.516 54.7834C158.732 56.7532 160.748 59.785 162.64 62.9091C169.088 73.5279 172.719 85.0392 173.489 97.4432C173.55 98.5666 173.581 99.7209 173.366 100.814C172.889 103.199 171.473 104.861 169.088 105.646C168.688 105.769 168.38 106.2 168.026 106.492C168.38 106.831 168.672 107.323 169.103 107.477C179.86 111.525 188.769 118.158 195.894 127.114C200.51 132.916 203.896 139.38 204.957 146.844ZM91.0706 77.9447C98.5646 77.9447 103.381 73.0354 103.335 66.6487C103.304 59.9851 97.2874 54.7988 90.7321 55.7529C86.0695 56.4301 83.115 59.1386 81.6224 63.4939C81.2377 64.6173 80.6683 65.0482 79.5604 65.1252C78.1293 65.2329 77.1906 64.7096 76.6366 63.4015C76.375 62.7706 76.0519 62.1704 75.7134 61.5702C73.0512 57.0149 67.6962 54.9988 62.5874 56.6147C57.9556 58.0921 54.4933 63.0322 54.8472 67.649C55.2781 73.1277 59.2482 77.483 64.4955 78.2063C69.712 78.9296 74.667 76.0363 76.5289 71.204C76.7905 70.5115 76.8982 69.6959 77.3599 69.188C77.9138 68.5878 78.7602 67.9261 79.4834 67.9107C80.0836 67.9107 80.8068 68.7263 81.2684 69.3419C81.7147 69.9421 81.8378 70.7885 82.1763 71.4964C84.2537 75.6362 87.5929 77.8369 91.0706 77.9447ZM86.7158 81.1149C81.5146 81.1149 76.6059 81.1149 71.497 81.1149C74.0668 85.4701 76.5289 89.6407 79.0987 94.0113C81.6685 89.6561 84.146 85.4701 86.7158 81.1149Z" fill="white"/>
<path d="M204.049 136.871C210.605 151.337 206.835 166.681 194.509 176.699C190.57 179.916 186.215 182.455 181.429 184.271C180.337 184.702 179.321 185.487 178.428 186.287C171.719 192.412 163.841 196.46 155.192 198.906C150.899 200.122 146.467 200.799 142.097 201.707C141.866 201.769 141.636 201.831 141.128 201.938L139.404 202.046C127.032 202.831 115.153 201.769 104.381 194.444C104.72 197.891 105.027 201.046 105.351 204.201C105.982 210.356 106.628 216.512 107.29 222.668C107.69 226.485 108.136 230.286 108.505 234.102C108.628 235.364 109.167 236.288 110.352 236.657L109.644 238.119C109.305 237.965 108.967 237.78 108.628 237.611C106.812 236.657 106.612 236.426 105.397 238.15C105.012 238.719 104.658 239.319 104.35 239.92C102.719 243.105 101.842 246.537 101.457 250.061C101.411 250.431 101.381 250.785 101.365 251.154L99.6878 251.077C99.7494 249.477 99.8263 247.891 100.088 246.337C100.396 244.383 100.765 242.505 100.473 240.535C100.073 237.873 99.5493 235.287 97.7182 233.194C96.364 231.655 95.5946 231.517 93.9173 232.625C88.4238 236.242 82.3917 237.134 75.9903 236.226C74.1437 235.965 73.9898 235.503 74.3745 233.641C74.8516 231.348 75.2978 229.008 75.2978 226.685C75.3132 223.822 73.482 222.329 70.6352 222.36C70.0043 222.376 69.3734 222.468 68.7271 222.468C66.5266 222.468 64.3108 222.576 62.1257 222.422C60.2175 222.283 58.3402 221.76 56.4475 221.606C53.7546 221.375 52.4774 222.699 53.0006 225.33C53.2621 226.685 53.7546 228.193 54.6625 229.162C56.1859 230.778 58.1248 232.009 59.8328 233.441C60.2791 233.81 60.5561 234.349 60.91 234.795C60.3406 234.918 59.7559 235.18 59.2173 235.118C54.6932 234.487 50.1999 233.81 45.6912 233.133L45.6605 231.671C46.9223 231.671 48.1841 231.702 49.4613 231.794C49.8922 231.825 50.323 231.809 50.9386 231.809C50.877 230.855 50.7847 229.993 50.7847 229.132C50.7693 227.408 50.7385 225.684 50.8616 223.976C51.0155 222.068 52.0311 220.698 53.8777 219.959C54.2624 219.805 54.6932 219.236 54.7086 218.836C55.0625 208.802 55.3549 198.768 55.6473 188.734C55.6627 188.457 55.6011 188.165 55.6011 188.18C53.0159 188.365 50.4923 188.503 47.9841 188.78C47.507 188.826 46.9531 189.38 46.6761 189.842C44.5833 193.397 42.6136 197.029 40.4901 200.553C39.7053 201.831 38.6435 203.323 36.8739 202.769C35.1043 202.2 35.2428 200.307 35.3659 198.953C35.7044 195.198 36.2738 191.458 36.9047 187.734C37.1201 186.487 37.1509 185.779 35.8121 185.071C31.4573 182.763 28.1027 179.377 25.7022 175.037C25.4406 174.545 24.8558 174.114 24.3173 173.898C10.6373 168.497 2.26622 158.724 0.265778 144.058C-0.703668 137.025 1.06596 130.285 4.15895 123.913C8.42143 115.11 14.7151 107.954 22.286 101.891C23.7325 100.721 24.3634 99.5362 24.5019 97.6279C26.3947 72.3275 37.6279 52.3826 58.7865 38.1935C59.879 37.4548 61.0485 36.8084 61.941 36.2698C60.4637 33.0533 58.7557 30.1293 57.7862 26.9899C55.6011 19.9876 57.7247 14.0319 63.5414 9.50734C68.8656 5.36755 75.0978 3.52081 81.5915 2.38198C94.8406 0.0581603 107.613 2.22809 120.169 6.50638C120.631 6.66028 121.093 6.79878 121.431 6.90651C122.693 5.24444 123.755 3.58237 125.093 2.16653C128.617 -1.54235 131.864 -0.126514 134.157 3.6747C134.757 4.67502 134.311 5.49067 133.388 6.02931C132.541 6.52177 131.603 6.87573 130.772 7.38359C129.879 7.93761 129.048 8.61475 127.956 9.41501C130.018 10.4307 131.772 11.2925 133.511 12.139C142.574 16.5558 151.13 21.742 158.532 28.6519C162.302 32.1454 165.718 35.962 168.057 40.5942C168.872 42.2101 169.626 43.8722 170.18 45.5958C171.904 51.0591 169.765 54.9988 164.287 56.6301C163.348 56.9071 162.379 57.0764 161.317 57.3227C161.425 57.5843 161.471 57.8151 161.594 57.9844C171.75 72.5583 176.105 88.7789 175.397 106.446C175.335 107.662 175.705 108.231 176.766 108.816C188.738 115.357 198.356 124.283 204.049 136.871ZM198.556 169.882C203.942 163.126 206.173 155.462 204.957 146.844C203.896 139.38 200.51 132.916 195.894 127.114C188.769 118.158 179.859 111.525 169.103 107.477C168.672 107.323 168.38 106.831 168.026 106.492C168.38 106.2 168.688 105.769 169.088 105.646C171.473 104.861 172.889 103.199 173.366 100.814C173.581 99.7209 173.55 98.5667 173.489 97.4432C172.719 85.0392 169.088 73.5279 162.64 62.9091C160.748 59.785 158.732 56.7532 155.516 54.7834C149.991 51.3977 144.59 47.7658 138.881 44.7186C126.509 38.1319 113.183 34.8539 99.18 34.1306C89.5625 33.6228 80.0219 34.3615 70.5121 35.7927C68.2501 36.1466 65.7418 36.3159 63.8491 37.424C59.5866 39.9479 55.3549 42.6564 51.6464 45.9036C36.0583 59.508 27.8257 76.8366 26.3023 97.4278C25.2098 112.233 29.0414 125.852 36.0737 138.733C36.4738 139.457 36.9508 140.134 37.3817 140.826C42.4751 137.902 47.6455 136.994 53.0467 139.549C54.724 136.102 56.3244 132.731 58.0171 129.423C58.5095 128.453 58.5556 127.714 58.094 126.699C55.4011 120.774 56.4936 115.726 61.3716 111.402C62.695 110.232 64.1415 109.201 65.4495 108.016C67.4807 106.184 68.8964 103.999 69.0041 101.137C69.0195 100.598 69.435 100.059 69.6658 99.5362C70.189 99.8286 70.8507 100.029 71.2046 100.46C75.2824 105.415 77.329 111.109 76.7905 117.542C76.4211 122.113 74.7438 126.145 70.743 128.838C69.3888 129.746 67.4807 130.208 66.6497 131.439C65.7726 132.762 65.8496 134.732 65.511 136.41C65.511 136.471 65.4802 136.517 65.4802 136.563C64.7724 139.657 64.0645 142.75 63.3567 145.874C63.9107 146.09 64.3723 146.259 64.8186 146.444C70.6198 148.86 73.7436 155.523 71.0507 160.556C69.8504 162.803 69.158 164.757 69.6042 167.358C69.8351 168.758 70.189 169.405 71.4046 169.897C77.1598 172.236 83.0995 173.945 89.2701 174.776C91.286 175.053 93.3172 175.237 95.3638 175.468C95.7793 171.405 96.9488 167.912 99.0723 164.742C102.827 159.125 107.936 155 113.737 151.753C126.663 144.535 140.574 141.611 155.316 142.535C156.408 142.596 157.962 143.581 158.578 142.15C159.039 141.088 158.639 139.657 158.593 138.379C158.593 138.149 158.47 137.918 158.362 137.687C157.885 136.656 158.316 136.363 159.332 136.425C163.41 136.656 168.134 140.442 169.319 144.351C169.488 144.889 170.057 145.428 170.58 145.72C172.95 147.013 175.443 148.09 177.736 149.475C185.938 154.431 188.431 163.464 187.338 171.529C186.83 175.176 184.907 178.238 182.937 181.409C183.229 181.378 183.322 181.393 183.414 181.347C183.768 181.209 184.137 181.055 184.491 180.885C189.969 178.238 194.74 174.653 198.556 169.882ZM181.998 174.853C185.538 169.312 186.584 163.48 183.122 157.447C181.075 153.892 177.936 151.461 174.381 149.537C166.256 145.151 157.454 144.12 149.207 144.166C146.437 144.32 144.467 144.304 142.513 144.551C134.88 145.489 127.448 147.29 120.385 150.445C112.937 153.784 106.212 158.109 101.273 164.788C98.9338 167.943 97.395 171.436 97.3335 175.407C97.2411 182.255 100.857 187.026 106.366 190.488C113.106 194.721 120.646 196.521 128.51 196.86C142.636 197.46 155.931 194.367 168.242 187.318C173.72 184.179 178.567 180.239 181.998 174.853ZM184.091 175.684C183.722 175.699 183.568 175.822 183.46 175.991C180.136 181.285 175.489 185.179 170.211 188.365C161.655 193.536 152.361 196.721 142.451 198.106C133.495 199.353 124.586 199.184 115.83 196.737C111.429 195.505 107.259 193.705 103.335 190.673C103.55 191.119 103.581 191.258 103.658 191.35C103.981 191.643 104.32 191.935 104.658 192.212C108.644 195.413 113.199 197.444 118.107 198.691C124.909 200.399 131.787 200.738 138.758 200.184C150.222 199.26 160.963 196.09 170.719 189.934C175.674 186.81 180.029 182.994 182.999 177.823C183.399 177.13 183.722 176.407 184.091 175.684ZM167.118 144.474C167.195 144.335 167.272 144.197 167.364 144.074C166.595 143.058 165.841 142.042 164.81 140.688C164.148 141.888 163.733 142.627 163.24 143.504C164.764 143.889 165.933 144.181 167.118 144.474ZM106.397 234.656C106.643 234.395 106.705 233.841 106.659 233.441C105.935 226.408 105.181 219.375 104.458 212.342C103.827 206.186 103.227 200.015 102.55 193.874C102.473 193.151 102.104 192.366 101.627 191.843C99.4878 189.519 97.8105 186.964 96.9334 183.917C96.3332 181.809 95.8562 179.67 95.3022 177.438C94.8868 177.423 94.4097 177.392 93.5634 177.33C93.9019 194.998 94.2405 212.48 94.5636 229.839C100.503 230.332 100.98 235.103 102.304 238.765C103.627 237.457 105.058 236.088 106.397 234.656ZM92.0246 231.625C92.517 231.271 92.8402 230.332 92.8402 229.67C92.5786 215.65 92.2093 201.646 91.9938 187.626C91.9015 182.563 89.5163 179.116 85.0384 177.146C81.9454 175.791 78.714 174.699 75.5132 173.606C73.7128 172.991 71.8355 172.56 69.9736 172.19C69.5119 172.113 68.6656 172.452 68.4501 172.837C67.2653 174.976 65.6034 176.561 63.5106 177.777C63.1567 177.977 62.7566 178.454 62.7258 178.839C62.3872 181.87 60.8638 184.148 58.5095 185.995C58.0632 186.349 57.7093 187.103 57.6939 187.688C57.2784 197.952 56.9245 208.217 56.5706 218.497C56.5706 218.867 56.6321 219.236 56.6475 219.467C61.2793 220.652 65.7726 220.96 70.389 220.452C74.036 220.036 76.4519 222.191 77.1752 225.777C77.7753 228.731 77.2367 231.532 76.0364 234.349C80.3451 235.334 88.6854 233.948 92.0246 231.625ZM73.6205 122.159C71.0969 121.928 70.4198 120.343 70.5429 118.311C70.3275 118.265 70.2659 118.234 70.2351 118.25C70.112 118.311 69.9582 118.358 69.8658 118.45C68.7271 119.573 67.4807 120.528 65.8342 119.62C64.203 118.712 64.3877 117.096 64.5262 115.557C64.557 115.264 64.6647 114.957 64.6339 114.68C64.6185 114.464 64.4339 114.11 64.3108 114.11C63.2951 114.079 62.2949 113.371 61.2639 114.341C58.3864 117.05 57.7862 122.821 60.0483 126.006C60.2483 123.99 60.433 121.866 60.7407 119.773C60.8023 119.343 61.4178 119.004 61.7717 118.635C61.8333 119.112 61.941 119.589 61.9256 120.05C61.8487 122.159 61.6948 124.252 61.6332 126.36C61.6332 126.745 61.9564 127.145 62.2795 127.93C62.6027 127.083 62.772 126.699 62.9104 126.299C63.2028 125.468 63.4336 124.606 63.8029 123.806C63.9568 123.452 64.4031 123.221 64.7108 122.928C64.8032 123.359 65.0186 123.821 64.9724 124.236C64.8801 124.852 64.6031 125.452 64.4185 126.068C64.2338 126.73 64.0645 127.407 63.7876 128.469C66.0188 127.437 67.0498 125.868 68.1578 124.329C68.604 123.698 68.7271 122.113 69.7735 122.759C70.8045 123.39 69.6658 124.436 69.1888 125.129C68.3732 126.345 67.373 127.437 66.4497 128.592C69.8351 127.607 72.1587 125.514 73.6205 122.159ZM70.0505 157.062C70.2198 153.046 68.0654 150.306 64.6801 148.429C64.1107 148.121 63.449 147.982 62.7412 147.736C62.3719 149.167 62.0487 150.399 61.8179 151.245C62.4642 151.907 62.8951 152.338 63.3105 152.769C62.7258 153.107 62.1718 153.692 61.5717 153.738C60.0175 153.892 58.4018 153.984 56.863 153.784C52.9082 153.292 49.3536 151.845 46.6761 148.737C46.4299 148.444 46.553 147.829 46.4914 147.352C46.9684 147.382 47.6147 147.244 47.8917 147.49C48.3534 147.89 48.5842 148.552 48.9073 149.106C49.1074 148.967 49.3228 148.829 49.5229 148.69C50.4615 146.29 51.4002 143.904 52.3696 141.427C47.8302 138.856 41.6288 139.626 37.3509 143.335C35.9352 144.566 34.5965 144.597 33.0423 143.858C28.5336 141.734 27.2718 137.148 29.9185 132.685C30.2109 132.177 30.4417 131.362 30.2417 130.869C28.1643 125.806 26.6716 120.589 25.3637 115.28C24.8097 113.017 23.8556 110.801 22.7169 108.77C21.7321 107.031 20.024 106.908 18.3775 108.016C17.8543 108.37 17.3619 108.785 16.9156 109.232C12.7147 113.633 8.99079 118.373 6.26711 123.836C2.92791 130.531 1.03518 137.579 2.28161 145.074C4.46671 158.293 12.2992 167.05 24.5635 172.006C25.9946 172.575 26.8563 173.391 27.6565 174.653C32.9961 183.101 40.7825 187.087 50.6923 186.872C53.6776 186.81 56.3551 185.641 58.5095 183.502C59.7251 182.301 60.6638 180.901 60.6792 178.9C57.1245 179.87 53.7238 179.762 50.3538 178.869C49.7845 178.715 48.9073 177.977 48.9535 177.607C49.1074 176.545 49.9999 177.007 50.7231 177.1C52.6005 177.361 54.5086 177.777 56.4013 177.7C60.7561 177.546 64.4646 176.022 66.7267 171.975C67.8962 169.882 68.0193 167.666 67.573 165.496C65.1725 166.219 62.972 167.235 60.6946 167.466C58.2017 167.712 55.6319 167.281 53.0929 167.035C52.7851 167.019 52.5389 166.404 52.2619 166.05C52.6312 165.819 52.9698 165.496 53.3853 165.373C53.6776 165.296 54.0469 165.496 54.3855 165.557C57.6324 166.111 60.8638 166.096 63.9568 164.803C67.3884 163.372 69.8966 161.033 70.0505 157.062ZM64.1569 133.763C64.757 130.485 64.4646 130.131 61.1408 129.469C61.0331 129.453 60.9254 129.377 60.8485 129.407C60.5253 129.53 60.0483 129.607 59.9252 129.854C58.4787 132.747 57.0784 135.655 55.5242 138.903C57.8478 139.749 59.9713 140.534 62.1872 141.35C62.4642 140.842 62.5873 140.688 62.6335 140.519C63.1567 138.272 63.7414 136.025 64.1569 133.763ZM59.6482 151.476C60.4176 148.752 61.11 145.997 61.7871 143.381C59.3712 142.504 57.1399 141.688 54.7394 140.842C53.6161 143.781 52.4312 146.828 51.2309 149.937C53.6161 151.414 56.1705 151.83 58.7711 151.968C59.0634 151.984 59.5866 151.722 59.6482 151.476ZM37.6125 200.538C41.0441 197.167 42.8752 192.889 45.0142 188.688C42.9214 188.088 41.1056 187.564 39.0898 186.98C38.1049 191.473 37.0586 195.89 37.6125 200.538ZM31.642 140.688C33.0423 142.211 34.6426 142.781 35.9198 142.073C34.4734 139.472 33.0269 136.871 31.5343 134.193C29.9955 136.363 30.0878 138.995 31.642 140.688Z" fill="#2B2B37"/>
<path d="M199.833 258.71C200.495 262.912 200.002 267.051 197.987 270.899C197.802 271.268 197.725 271.868 197.894 272.192C199.879 275.808 199.156 278.84 195.694 281.164C192.278 283.472 188.446 284.626 184.414 285.227C175.043 286.627 165.687 286.135 156.331 285.042C142.867 283.457 129.725 280.41 116.892 276.07C111.121 274.115 105.351 272.115 100.488 268.221C100.149 267.944 99.3031 268.098 98.7799 268.283C90.0856 271.499 81.453 274.946 72.6818 277.947C63.2643 281.194 53.7237 284.103 43.9062 285.965C34.4887 287.735 25.1328 287.874 15.9153 284.934C14.4843 284.488 13.0839 283.78 11.8529 282.934C9.52931 281.318 8.99073 279.071 9.96017 276.424C10.0987 276.039 10.0525 275.316 9.7909 275.069C2.01995 267.775 1.98917 256.186 8.77529 247.461C14.038 240.689 21.0857 236.565 29.1952 234.195C34.581 232.61 40.0745 231.702 45.6604 231.671L45.6912 233.133C45.6604 233.271 45.645 233.395 45.6296 233.518C39.6745 233.487 33.8886 234.518 28.2565 236.38C20.0701 239.058 13.2378 243.567 8.54447 251C2.88168 259.942 5.58997 271.284 14.7766 276.547C21.3165 280.286 28.4258 280.594 35.6736 279.809C44.0447 278.886 52.1695 276.793 60.2329 274.377C71.9585 270.868 83.3919 266.544 94.7636 262.034C96.4871 261.357 97.8258 260.588 98.1336 258.587C98.2259 257.987 98.7337 257.464 98.9184 256.864C99.1954 256.002 99.4416 255.125 99.5185 254.232C99.6108 253.185 99.6416 252.124 99.6878 251.077L101.365 251.154C101.073 256.156 102.781 260.311 107.366 263.066C109.074 264.097 110.936 264.943 112.798 265.682C123.432 269.914 134.511 272.53 145.667 274.885C154.192 276.685 162.763 278.132 171.504 278.178C177.29 278.27 182.968 277.501 188.507 275.762C194.37 273.915 197.694 269.56 197.94 263.435C198.294 254.37 194.309 247.384 187.2 242.136C180.413 237.119 172.519 235.241 164.225 234.795C157.947 234.456 151.792 235.564 145.667 236.796C144.913 236.95 143.513 236.903 143.344 236.519C142.82 235.349 144.159 235.057 144.867 234.595C146.667 233.41 148.268 232.04 148.945 229.916C149.56 227.947 149.884 225.884 148.406 224.161C146.991 222.514 145.113 223.022 143.344 223.545C139.45 224.669 135.496 225.253 131.433 225.361C127.725 225.454 125.555 227.824 125.986 231.517C126.201 233.471 126.986 235.395 127.74 237.242C128.479 239.027 128.371 239.55 126.478 240.074C123.108 241.012 119.631 241.289 116.261 240.535C113.983 240.012 111.752 239.166 109.644 238.119L110.352 236.657C112.968 237.442 115.584 238.427 118.261 238.781C120.785 239.104 123.401 238.704 126.217 238.612C125.54 237.042 124.97 235.903 124.586 234.703C122.908 229.67 124.524 223.591 132.172 223.361C135.296 223.284 138.389 222.545 141.497 222.145C142.436 222.022 142.559 221.514 142.42 220.714C141.42 214.558 140.435 208.402 139.404 202.046L141.128 201.938C142.19 208.325 143.251 214.696 144.328 221.16C144.805 221.191 145.236 221.221 145.652 221.237C149.16 221.345 151.099 223.222 151.268 226.762C151.361 228.962 151.284 231.178 151.284 233.487C154.084 233.271 156.747 232.964 159.424 232.871C170.273 232.44 180.475 234.395 189.308 241.212C195.078 245.675 198.725 251.493 199.833 258.71Z" fill="#2B2B37"/>
<path d="M187.2 242.136C194.309 247.384 198.294 254.37 197.94 263.435C197.694 269.56 194.37 273.915 188.508 275.762C182.968 277.501 177.29 278.27 171.504 278.178C162.763 278.132 154.192 276.685 145.667 274.885C134.511 272.53 123.432 269.914 112.799 265.682C110.937 264.943 109.075 264.097 107.367 263.066C102.781 260.311 101.073 256.156 101.365 251.154C101.381 250.785 101.411 250.431 101.458 250.061C101.842 246.537 102.719 243.105 104.35 239.92C104.658 239.319 105.012 238.719 105.397 238.15C106.613 236.426 106.813 236.657 108.628 237.611C108.967 237.781 109.305 237.965 109.644 238.119C111.752 239.166 113.983 240.012 116.261 240.535C119.631 241.289 123.108 241.012 126.478 240.074C128.371 239.55 128.479 239.027 127.74 237.242C126.986 235.395 126.201 233.471 125.986 231.517C125.555 227.823 127.725 225.454 131.433 225.361C135.496 225.253 139.451 224.669 143.344 223.545C145.113 223.022 146.991 222.514 148.406 224.161C149.884 225.884 149.561 227.947 148.945 229.916C148.268 232.04 146.668 233.41 144.867 234.595C144.159 235.057 142.821 235.349 143.344 236.519C143.513 236.903 144.913 236.949 145.667 236.796C151.792 235.564 157.947 234.456 164.225 234.795C172.519 235.241 180.414 237.119 187.2 242.136Z" fill="#F9DF4C"/>
<path d="M183.122 157.447C186.584 163.48 185.538 169.312 181.998 174.853C178.567 180.239 173.72 184.179 168.242 187.318C155.931 194.367 142.636 197.46 128.51 196.86C120.646 196.521 113.106 194.721 106.366 190.488C100.857 187.026 97.2412 182.255 97.3335 175.407C97.3951 171.436 98.9339 167.943 101.273 164.788C106.212 158.109 112.937 153.784 120.385 150.445C127.448 147.29 134.88 145.489 142.513 144.551C144.467 144.304 146.437 144.32 149.207 144.166C157.455 144.12 166.256 145.151 174.381 149.537C177.936 151.461 181.075 153.892 183.122 157.447ZM177.044 161.51C178.998 159.755 178.705 157.185 176.49 155.816C174.72 154.708 172.843 154.677 170.827 155.185C169.703 155.462 168.395 155.477 167.272 155.2C164.579 154.523 162.302 155.154 160.347 156.97C158.224 158.955 158.824 161.941 161.517 163.049C162.286 163.357 163.133 163.434 163.948 163.603C164.41 163.711 164.856 163.803 165.318 163.895C164.533 167.573 165.61 169.112 169.273 169.451C171.765 169.666 173.997 168.774 175.566 166.881C176.197 166.127 176.443 164.788 176.336 163.772C176.213 162.772 176.274 162.202 177.044 161.51ZM170.581 180.085C171.642 177.946 170.981 175.545 168.842 174.529C167.349 173.822 165.579 173.406 163.933 173.421C160.871 173.421 157.993 174.329 155.9 176.761C154.454 178.438 155.223 180.547 157.378 181.024C157.993 181.162 158.624 181.224 159.378 181.347C159.332 181.932 159.286 182.317 159.27 182.701C159.178 184.671 160.209 185.887 162.163 185.687C165.918 185.318 168.872 183.532 170.581 180.085ZM150.638 186.379C151.099 183.748 149.668 181.347 147.052 180.331C144.036 179.177 142.174 179.823 140.497 182.378C140.081 183.025 139.297 183.471 138.604 183.902C137.989 184.271 137.25 184.471 136.604 184.81C135.342 185.441 134.726 186.518 134.757 187.918C134.788 189.257 135.465 190.35 136.711 190.781C138.296 191.35 139.989 191.643 141.636 192.058C141.651 191.981 141.682 191.889 141.697 191.812C142.436 191.766 143.174 191.766 143.898 191.689C147.852 191.243 150.099 189.457 150.638 186.379ZM147.699 158.848C149.945 156.124 148.853 152.769 145.483 151.722C144.113 151.291 142.59 151.337 141.143 151.107C140.312 150.968 139.389 150.891 138.666 150.491C135.988 149.014 133.234 148.49 130.295 149.46C127.509 150.383 125.678 153.261 125.878 156.077C125.94 156.878 125.755 157.786 125.401 158.524C124.17 161.11 124.77 163.403 127.402 164.526C128.987 165.203 130.787 165.373 132.48 165.788C135.988 165.527 140.343 164.48 143.236 162.618C144.867 161.571 146.483 160.34 147.699 158.848ZM128.848 186.164C131.141 183.194 129.972 179.747 126.309 178.9C122.678 178.054 119.4 179.008 116.645 181.532C115.168 182.871 113.86 184.425 114.507 186.656C115.184 188.949 117.153 189.642 119.215 190.134C119.631 190.227 120.092 190.196 120.631 190.242C123.862 189.996 126.755 188.857 128.848 186.164ZM118.846 174.822C119.415 174.114 119.831 172.821 119.569 172.021C118.754 169.482 116.984 167.635 114.307 166.927C112.922 166.558 111.521 166.681 110.413 167.697C109.382 168.651 108.213 169.005 106.843 169.174C103.981 169.528 102.181 171.39 102.196 173.791C102.196 176.13 103.196 177.915 105.289 178.931C107.52 180.008 109.906 179.962 111.798 178.315C113.152 177.146 114.568 176.638 116.245 176.284C117.184 176.084 118.261 175.545 118.846 174.822Z" fill="white"/>
<path d="M183.46 175.991C183.568 175.822 183.722 175.699 184.091 175.684C183.722 176.407 183.399 177.13 182.999 177.823C180.029 182.994 175.674 186.81 170.719 189.934C160.963 196.09 150.222 199.26 138.758 200.184C131.787 200.738 124.909 200.399 118.107 198.691C113.198 197.444 108.644 195.413 104.658 192.212C104.32 191.935 103.981 191.643 103.658 191.35C103.581 191.258 103.55 191.119 103.335 190.673C107.259 193.705 111.429 195.505 115.83 196.737C124.586 199.183 133.495 199.353 142.451 198.106C152.361 196.721 161.655 193.536 170.211 188.365C175.489 185.179 180.136 181.285 183.46 175.991Z" fill="white"/>
<path d="M176.49 155.816C178.706 157.185 178.998 159.756 177.044 161.51C176.274 162.202 176.213 162.772 176.336 163.772C176.443 164.788 176.197 166.127 175.566 166.881C173.997 168.774 171.765 169.666 169.273 169.451C165.61 169.112 164.533 167.573 165.318 163.895C164.856 163.803 164.41 163.711 163.948 163.603C163.133 163.434 162.286 163.357 161.517 163.049C158.824 161.941 158.224 158.955 160.348 156.97C162.302 155.154 164.579 154.523 167.272 155.2C168.396 155.477 169.704 155.462 170.827 155.185C172.843 154.677 174.72 154.708 176.49 155.816ZM175.766 160.171C176.936 159.325 176.767 157.816 175.428 157.37C174.135 156.955 172.627 156.755 171.335 157.016C169.734 157.355 168.257 157.539 166.718 156.985C166.303 156.832 165.872 156.785 165.087 156.616C164.21 156.985 162.994 157.278 162.025 157.955C161.456 158.34 160.948 159.355 161.025 160.002C161.086 160.571 161.963 161.218 162.61 161.495C163.441 161.849 164.441 161.833 165.333 162.064C167.011 162.51 167.642 163.603 166.934 165.157C166.38 166.373 166.857 166.927 167.888 167.266C170.057 167.989 172.104 167.573 173.843 166.173C174.351 165.757 174.72 164.649 174.551 164.018C174.12 162.387 174.351 161.218 175.766 160.171Z" fill="#2B2B37"/>
<path d="M175.428 157.37C176.767 157.816 176.936 159.325 175.766 160.171C174.351 161.218 174.12 162.387 174.551 164.018C174.72 164.649 174.351 165.757 173.843 166.173C172.104 167.573 170.057 167.989 167.888 167.266C166.857 166.927 166.38 166.373 166.934 165.157C167.641 163.603 167.011 162.51 165.333 162.064C164.441 161.833 163.441 161.848 162.61 161.495C161.963 161.218 161.086 160.571 161.025 160.002C160.948 159.355 161.455 158.34 162.025 157.955C162.994 157.278 164.21 156.985 165.087 156.616C165.872 156.785 166.303 156.831 166.718 156.985C168.257 157.539 169.734 157.355 171.335 157.016C172.627 156.755 174.135 156.955 175.428 157.37Z" fill="#2B2B37"/>
<path d="M168.842 174.529C170.981 175.545 171.642 177.946 170.581 180.085C168.873 183.532 165.918 185.317 162.163 185.687C160.209 185.887 159.178 184.671 159.27 182.701C159.286 182.317 159.332 181.932 159.378 181.347C158.624 181.224 157.993 181.162 157.378 181.024C155.223 180.547 154.454 178.438 155.9 176.761C157.993 174.329 160.871 173.421 163.933 173.421C165.58 173.406 167.349 173.822 168.842 174.529Z" fill="#F9DF4C"/>
<path d="M147.052 180.331C149.668 181.347 151.099 183.748 150.638 186.379C150.099 189.457 147.852 191.243 143.898 191.689C143.174 191.766 142.436 191.766 141.697 191.812C141.682 191.889 141.651 191.981 141.636 192.058C139.989 191.643 138.296 191.35 136.711 190.781C135.465 190.35 134.788 189.257 134.757 187.918C134.726 186.518 135.342 185.441 136.604 184.81C137.25 184.471 137.989 184.271 138.604 183.902C139.297 183.471 140.081 183.025 140.497 182.378C142.174 179.824 144.036 179.177 147.052 180.331ZM146.36 188.642C146.483 188.534 146.252 187.688 145.975 187.534C144.698 186.78 144.144 185.564 143.528 184.317C143.359 183.963 142.574 183.517 142.436 183.609C141.728 184.117 141.097 184.748 140.574 185.441C140.466 185.595 140.928 186.241 141.22 186.58C141.897 187.364 142.636 188.118 143.39 188.857C143.698 189.165 144.113 189.38 144.575 189.719C145.252 189.334 145.883 189.073 146.36 188.642Z" fill="#D55046"/>
<path d="M145.483 151.722C148.853 152.769 149.945 156.124 147.698 158.848C146.483 160.34 144.867 161.571 143.236 162.618C140.343 164.48 135.988 165.527 132.48 165.788C130.787 165.373 128.987 165.203 127.402 164.526C124.77 163.403 124.17 161.11 125.401 158.524C125.755 157.786 125.94 156.878 125.878 156.077C125.678 153.261 127.509 150.383 130.295 149.46C133.234 148.49 135.988 149.014 138.666 150.491C139.389 150.891 140.312 150.968 141.143 151.107C142.59 151.337 144.113 151.291 145.483 151.722ZM146.929 155.877C146.267 153.707 144.744 152.861 142.297 153.153C143.928 154.108 145.267 154.892 146.929 155.877ZM146.267 157.663C144.821 156.739 143.436 155.908 142.097 155.031C140.697 154.123 139.312 153.184 137.927 152.245C136.219 151.091 134.326 150.691 132.31 150.891C129.033 151.23 127.109 153.815 127.986 156.908C128.756 159.632 130.941 161.202 133.172 162.71C134.819 163.818 136.357 163.326 137.942 162.833C141.158 161.818 144.221 160.54 146.267 157.663ZM130.402 163.48C129.31 162.387 128.109 161.187 126.986 160.063C126.124 161.833 127.402 163.187 130.402 163.48Z" fill="#2B2B37"/>
<path d="M145.975 187.534C146.252 187.688 146.483 188.534 146.36 188.642C145.883 189.073 145.252 189.334 144.575 189.719C144.113 189.38 143.698 189.165 143.39 188.857C142.636 188.118 141.897 187.364 141.22 186.579C140.928 186.241 140.466 185.595 140.574 185.441C141.097 184.748 141.728 184.117 142.436 183.609C142.574 183.517 143.359 183.963 143.528 184.317C144.144 185.564 144.698 186.78 145.975 187.534Z" fill="#D55046"/>
<path d="M142.297 153.153C144.744 152.861 146.267 153.707 146.929 155.877C145.267 154.892 143.928 154.108 142.297 153.153Z" fill="white"/>
<path d="M142.097 155.031C143.436 155.908 144.821 156.739 146.267 157.663C144.221 160.54 141.159 161.818 137.942 162.833C136.357 163.326 134.819 163.818 133.172 162.71C130.941 161.202 128.756 159.632 127.986 156.908C127.109 153.815 129.033 151.23 132.31 150.891C134.326 150.691 136.219 151.091 137.927 152.245C139.312 153.184 140.697 154.123 142.097 155.031Z" fill="white"/>
<path d="M142.42 220.714C142.559 221.514 142.436 222.022 141.497 222.145C138.389 222.545 135.296 223.284 132.172 223.361C124.524 223.591 122.908 229.67 124.586 234.703C124.97 235.903 125.54 237.042 126.217 238.612C123.401 238.704 120.785 239.104 118.261 238.781C115.584 238.427 112.968 237.442 110.352 236.657C109.167 236.288 108.628 235.364 108.505 234.102C108.136 230.286 107.69 226.485 107.289 222.668C106.628 216.512 105.981 210.356 105.351 204.201C105.027 201.046 104.72 197.891 104.381 194.444C115.153 201.769 127.032 202.831 139.404 202.046C140.435 208.402 141.42 214.558 142.42 220.714Z" fill="white"/>
<path d="M126.309 178.9C129.972 179.746 131.141 183.194 128.848 186.164C126.755 188.857 123.863 189.996 120.631 190.242C120.092 190.196 119.631 190.227 119.215 190.134C117.153 189.642 115.184 188.949 114.507 186.656C113.86 184.425 115.168 182.871 116.646 181.532C119.4 179.008 122.678 178.054 126.309 178.9ZM127.294 185.071C128.864 183.271 128.264 181.301 125.925 180.701C122.816 179.931 120.123 180.947 117.8 183.024C116.861 183.871 115.876 184.887 116.399 186.318C116.923 187.734 118.277 188.072 119.6 188.318C119.892 188.365 120.185 188.318 120.493 188.318C123.232 188.257 125.524 187.133 127.294 185.071Z" fill="#2B2B37"/>
<path d="M126.986 160.063C128.11 161.187 129.31 162.387 130.402 163.48C127.402 163.187 126.125 161.833 126.986 160.063Z" fill="white"/>
<path d="M125.924 180.701C128.263 181.301 128.864 183.271 127.294 185.071C125.524 187.134 123.232 188.257 120.492 188.319C120.185 188.319 119.892 188.365 119.6 188.319C118.277 188.072 116.922 187.734 116.399 186.318C115.876 184.887 116.861 183.871 117.8 183.024C120.123 180.947 122.816 179.931 125.924 180.701Z" fill="#2B2B37"/>
<path d="M119.569 172.021C119.831 172.821 119.415 174.114 118.846 174.822C118.261 175.545 117.184 176.084 116.245 176.284C114.568 176.638 113.152 177.146 111.798 178.315C109.906 179.962 107.52 180.008 105.289 178.931C103.196 177.915 102.196 176.13 102.196 173.791C102.181 171.39 103.981 169.528 106.843 169.174C108.213 169.005 109.382 168.651 110.413 167.696C111.521 166.681 112.922 166.558 114.307 166.927C116.984 167.635 118.754 169.482 119.569 172.021Z" fill="#2B2B37"/>
<path d="M103.335 66.6488C103.381 73.0354 98.5646 77.9447 91.0706 77.9447C87.5929 77.837 84.2537 75.6362 82.1763 71.4965C81.8378 70.7885 81.7147 69.9421 81.2684 69.3419C80.8068 68.7263 80.0835 67.9107 79.4834 67.9107C78.7602 67.9261 77.9138 68.5878 77.3598 69.188C76.8982 69.6959 76.7905 70.5115 76.5289 71.2041C74.6669 76.0364 69.712 78.9296 64.4955 78.2063C59.2481 77.483 55.278 73.1278 54.8472 67.6491C54.4932 63.0322 57.9555 58.0922 62.5873 56.6148C67.6962 54.9989 73.0512 57.0149 75.7133 61.5702C76.0519 62.1704 76.375 62.7706 76.6366 63.4016C77.1906 64.7097 78.1292 65.2329 79.5603 65.1252C80.6683 65.0482 81.2376 64.6173 81.6223 63.4939C83.115 59.1387 86.0695 56.4301 90.732 55.753C97.2873 54.7988 103.304 59.9851 103.335 66.6488ZM92.2401 74.8668C96.8103 74.836 100.565 71.1425 100.473 66.7719C100.38 62.4012 96.4718 58.4615 92.2708 58.5077C87.8391 58.5539 84.0998 62.3858 84.0998 66.9104C84.0844 71.2964 87.7929 74.9129 92.2401 74.8668ZM66.0804 75.39C70.5583 75.3592 74.2976 71.5888 74.2361 67.172C74.1745 62.6475 70.5122 59.0001 66.0496 59.0155C61.5256 59.0309 57.8786 62.8014 57.9094 67.3875C57.9402 71.7427 61.6948 75.4362 66.0804 75.39Z" fill="#2B2B37"/>
<path d="M100.473 240.535C100.765 242.505 100.396 244.383 100.088 246.337C99.8264 247.891 99.7494 249.477 99.6879 251.077C99.6417 252.124 99.6109 253.185 99.5186 254.232C99.4417 255.125 99.1955 256.002 98.9185 256.864C98.7338 257.464 98.226 257.987 98.1337 258.587C97.8259 260.588 96.4872 261.357 94.7637 262.034C83.392 266.544 71.9587 270.868 60.233 274.377C52.1696 276.793 44.0448 278.886 35.6737 279.809C28.4259 280.594 21.3166 280.286 14.7767 276.547C5.59008 271.284 2.88178 259.941 8.54458 251C13.2379 243.567 20.0702 239.058 28.2566 236.38C33.8887 234.518 39.6746 233.487 45.6297 233.518C45.6451 233.394 45.6605 233.271 45.6913 233.133C50.2 233.81 54.6933 234.487 59.2174 235.118C59.7559 235.18 60.3407 234.918 60.9101 234.795C60.5561 234.349 60.2791 233.81 59.8329 233.441C58.1248 232.009 56.1859 230.778 54.6625 229.162C53.7546 228.193 53.2622 226.685 53.0006 225.33C52.4774 222.699 53.7546 221.375 56.4475 221.606C58.3403 221.76 60.2176 222.283 62.1257 222.422C64.3108 222.576 66.5267 222.468 68.7272 222.468C69.3735 222.468 70.0044 222.376 70.6353 222.36C73.4821 222.329 75.3132 223.822 75.2979 226.685C75.2979 229.008 74.8516 231.348 74.3746 233.641C73.9899 235.503 74.1438 235.965 75.9903 236.226C82.3917 237.134 88.4238 236.242 93.9174 232.625C95.5947 231.517 96.3641 231.655 97.7182 233.194C99.5494 235.287 100.073 237.873 100.473 240.535Z" fill="#F9DF4C"/>
<path d="M100.473 66.7718C100.565 71.1425 96.8102 74.836 92.2399 74.8668C87.7928 74.9129 84.0843 71.2964 84.0997 66.9104C84.0997 62.3858 87.8389 58.5538 92.2707 58.5077C96.4716 58.4615 100.38 62.4012 100.473 66.7718Z" fill="white"/>
<path d="M92.8401 229.67C92.8401 230.332 92.517 231.271 92.0246 231.625C88.6854 233.949 80.3451 235.334 76.0364 234.349C77.2367 231.532 77.7753 228.731 77.1751 225.777C76.4519 222.191 74.036 220.036 70.389 220.452C65.7726 220.96 61.2793 220.652 56.6475 219.467C56.6321 219.236 56.5706 218.867 56.5706 218.497C56.9245 208.217 57.2784 197.952 57.6939 187.688C57.7093 187.103 58.0632 186.349 58.5095 185.995C60.8638 184.148 62.3872 181.87 62.7258 178.839C62.7565 178.454 63.1566 177.977 63.5106 177.777C65.6033 176.561 67.2652 174.976 68.4501 172.837C68.6655 172.452 69.5119 172.113 69.9735 172.19C71.8355 172.56 73.7128 172.991 75.5132 173.606C78.7139 174.699 81.9454 175.791 85.0384 177.146C89.5163 179.116 91.9015 182.563 91.9938 187.626C92.2092 201.646 92.5786 215.65 92.8401 229.67Z" fill="white"/>
<path d="M71.4971 81.1149C76.6059 81.1149 81.5147 81.1149 86.7158 81.1149C84.146 85.4702 81.6686 89.6561 79.0988 94.0114C76.529 89.6407 74.0669 85.4702 71.4971 81.1149Z" fill="#2B2B37"/>
<path d="M74.2361 67.172C74.2976 71.5888 70.5583 75.3592 66.0804 75.39C61.6948 75.4361 57.9401 71.7426 57.9094 67.3874C57.8786 62.8013 61.5256 59.0309 66.0496 59.0155C70.5122 59.0001 74.1745 62.6474 74.2361 67.172Z" fill="white"/>
<path d="M70.5428 118.311C70.4197 120.343 71.0968 121.928 73.6205 122.159C72.1586 125.514 69.835 127.607 66.4496 128.592C67.3729 127.437 68.3731 126.345 69.1887 125.129C69.6657 124.436 70.8044 123.39 69.7734 122.759C68.7271 122.113 68.604 123.698 68.1577 124.329C67.0498 125.868 66.0188 127.437 63.7875 128.469C64.0645 127.407 64.2338 126.73 64.4184 126.068C64.6031 125.452 64.8801 124.852 64.9724 124.236C65.0185 123.821 64.8031 123.359 64.7108 122.928C64.403 123.221 63.9568 123.452 63.8029 123.806C63.4336 124.606 63.2028 125.468 62.9104 126.299C62.7719 126.699 62.6026 127.083 62.2795 127.93C61.9563 127.145 61.6332 126.745 61.6332 126.36C61.6947 124.252 61.8486 122.159 61.9256 120.05C61.9409 119.589 61.8332 119.112 61.7717 118.635C61.4177 119.004 60.8022 119.343 60.7407 119.773C60.4329 121.866 60.2483 123.99 60.0482 126.006C57.7862 122.821 58.3863 117.05 61.2639 114.341C62.2949 113.371 63.2951 114.079 64.3107 114.11C64.4338 114.11 64.6185 114.464 64.6338 114.68C64.6646 114.957 64.5569 115.264 64.5261 115.557C64.3876 117.096 64.203 118.712 65.8341 119.62C67.4806 120.528 68.7271 119.573 69.8658 118.45C69.9581 118.358 70.112 118.311 70.2351 118.25C70.2659 118.234 70.3274 118.265 70.5428 118.311Z" fill="white"/>
<path d="M64.6801 148.429C68.0654 150.306 70.2198 153.046 70.0505 157.062C69.8966 161.033 67.3884 163.372 63.9568 164.803C60.8638 166.096 57.6324 166.111 54.3855 165.557C54.0469 165.496 53.6776 165.296 53.3853 165.373C52.9698 165.496 52.6312 165.819 52.2619 166.05C52.5389 166.404 52.7851 167.019 53.0929 167.035C55.6319 167.281 58.2017 167.712 60.6946 167.466C62.972 167.235 65.1725 166.219 67.573 165.496C68.0193 167.666 67.8962 169.882 66.7267 171.975C64.4646 176.022 60.7561 177.546 56.4013 177.7C54.5086 177.777 52.6005 177.361 50.7231 177.1C49.9999 177.007 49.1074 176.546 48.9535 177.607C48.9073 177.977 49.7845 178.715 50.3538 178.869C53.7238 179.762 57.1246 179.87 60.6792 178.9C60.6638 180.901 59.7251 182.301 58.5095 183.502C56.3552 185.641 53.6776 186.81 50.6924 186.872C40.7825 187.087 32.9961 183.101 27.6565 174.653C26.8563 173.391 25.9946 172.575 24.5635 172.006C12.2992 167.05 4.46671 158.294 2.28161 145.074C1.03518 137.579 2.92791 130.531 6.26711 123.836C8.9908 118.373 12.7147 113.633 16.9156 109.232C17.3619 108.785 17.8543 108.37 18.3775 108.016C20.024 106.908 21.7321 107.031 22.7169 108.77C23.8556 110.801 24.8097 113.017 25.3637 115.28C26.6716 120.589 28.1643 125.806 30.2417 130.869C30.4417 131.362 30.2109 132.177 29.9185 132.685C27.2718 137.148 28.5336 141.734 33.0423 143.858C34.5965 144.597 35.9352 144.566 37.3509 143.335C41.6288 139.626 47.8302 138.857 52.3696 141.427C51.4002 143.904 50.4615 146.29 49.5229 148.69C49.3228 148.829 49.1074 148.967 48.9073 149.106C48.5842 148.552 48.3534 147.89 47.8917 147.49C47.6148 147.244 46.9685 147.382 46.4914 147.352C46.553 147.829 46.4299 148.444 46.6761 148.737C49.3536 151.845 52.9082 153.292 56.863 153.784C58.4018 153.984 60.0175 153.892 61.5717 153.738C62.1718 153.692 62.7258 153.107 63.3105 152.769C62.8951 152.338 62.4642 151.907 61.8179 151.245C62.0487 150.399 62.3719 149.168 62.7412 147.736C63.449 147.983 64.1107 148.121 64.6801 148.429Z" fill="white"/>
<path d="M61.1408 129.469C64.4646 130.131 64.757 130.485 64.1569 133.763C63.7414 136.025 63.1566 138.272 62.6334 140.519C62.5873 140.688 62.4642 140.842 62.1872 141.35C59.9713 140.534 57.8478 139.749 55.5242 138.903C57.0784 135.655 58.4787 132.747 59.9251 129.854C60.0482 129.607 60.5253 129.53 60.8484 129.407C60.9254 129.377 61.0331 129.453 61.1408 129.469Z" fill="white"/>
<path d="M61.7871 143.381C61.1101 145.997 60.4176 148.752 59.6482 151.476C59.5867 151.722 59.0635 151.984 58.7711 151.968C56.1705 151.83 53.6161 151.414 51.231 149.937C52.4312 146.828 53.6161 143.781 54.7394 140.842C57.14 141.688 59.3712 142.504 61.7871 143.381Z" fill="white"/>
<path d="M45.0142 188.688C42.8753 192.889 41.0441 197.167 37.6126 200.538C37.0586 195.89 38.105 191.473 39.0899 186.98C41.1057 187.564 42.9215 188.088 45.0142 188.688Z" fill="white"/>
</svg>
