<svg width="77" height="34" viewBox="0 0 77 34" fill="none" xmlns="http://www.w3.org/2000/svg">
<path d="M71.9307 23.9055H67.0975C63.7915 12.8976 54.1094 4.07874 42.2548 2.50394C42.2548 2.48819 42.2705 2.45669 42.2705 2.44094C42.2705 1.08661 40.3341 0 37.9569 0C35.5639 0 33.6432 1.08661 33.6432 2.4252C33.6432 2.48819 33.6747 2.56693 33.6747 2.62992C22.2924 4.56693 13.0826 13.2126 9.88673 23.8898H5.05357C2.26703 23.8898 0 26.1575 0 28.9449C0 31.7323 2.26703 34 5.05357 34H71.9464C74.733 34 77 31.7323 77 28.9449C76.9685 26.1575 74.7172 23.9055 71.9307 23.9055Z" fill="#D55046"/>
<path d="M39.7598 15.0952C40.7174 11.6133 42.7497 9.24432 46.4738 9.01293C50.1872 8.79256 53.4006 11.415 53.9007 14.9299C54.5071 19.15 52.294 22.676 48.4316 23.6236C44.8884 24.4941 41.2175 22.3344 40.1003 18.4779C39.696 17.1116 39.015 16.6378 37.9723 17.2108C37.4083 17.5193 37.153 18.522 36.8657 19.2602C35.408 23.0947 31.2902 24.9789 27.5662 23.4914C23.9378 22.0479 22.0971 17.8388 23.4378 14.0484C24.4167 11.2607 27.0235 9.17821 29.8964 9.17821C32.865 9.17821 35.2165 10.5115 36.589 13.3653C37.5467 15.3817 37.5467 15.3817 39.7598 15.0952ZM46.8675 21.7284C49.7935 21.7394 52.1237 19.3594 52.1344 16.3403C52.145 13.4094 49.6978 10.8971 46.8462 10.9302C44.0798 10.9632 41.7176 13.3873 41.6751 16.2632C41.6219 19.2492 43.9627 21.7174 46.8675 21.7284ZM30.2156 11.1616C27.4278 11.1285 24.9167 13.6958 24.9061 16.5937C24.8955 19.4145 27.2789 21.9818 29.9815 22.0479C32.8118 22.1251 35.3016 19.6459 35.3548 16.7039C35.408 13.7179 33.0671 11.1946 30.2156 11.1616Z" fill="white"/>
</svg>
