<svg width="765" height="489" viewBox="0 0 765 489" fill="none" xmlns="http://www.w3.org/2000/svg">
<g clip-path="url(#clip0_10_285)">
<path d="M763.092 486.862C718.447 486.862 673.839 486.862 629.194 486.862C626.905 472.052 624.577 457.204 622.287 442.394C632.781 435.218 637.589 427.431 642.969 402.773H643.007C653.768 407.621 664.529 412.468 675.289 417.278C688.187 423.08 701.123 428.882 714.058 434.684C735.313 443.043 744.127 450.104 763.092 486.862Z" fill="#2B2B37"/>
<path d="M707.152 404.338C709.021 410.064 709.021 410.636 705.931 412.087C703.641 413.117 699.673 414.682 675.289 417.278C664.529 412.468 653.768 407.621 643.007 402.773H642.969C645.793 389.948 648.769 372.619 652.776 348.457C656.516 346.167 660.064 343.533 663.308 340.594C669.642 334.906 675.022 328.188 679.372 320.898C682.616 321.432 685.745 320.86 688.569 319.6C701.581 387.734 705.282 398.613 707.152 404.338Z" fill="#2B2B37"/>
<path d="M703.565 286.316C704.671 291.583 704.29 297.232 702.687 302.309C701.123 307.424 698.261 312.31 694.216 315.898C692.537 317.424 690.629 318.684 688.569 319.6C685.745 320.86 682.616 321.432 679.372 320.898C685.134 311.279 689.065 300.553 690.973 289.636C693.491 288.033 695.017 281.811 695.246 272.88C699.863 275.971 702.496 281.163 703.565 286.316Z" fill="white"/>
<path d="M700.054 239.671C701.008 241.542 701.39 243.145 700.741 248.909C700.131 254.672 698.528 264.559 696.391 271.276C696.086 271.086 695.704 270.895 695.284 270.628C689.217 267.04 673.42 256.314 659.034 248.947C655.867 247.306 652.738 245.855 649.456 244.595V244.557C645.03 242.84 640.298 241.465 634.651 240.511C624.272 238.755 610.84 238.374 590.73 239.748C589.395 231.045 588.021 222.342 586.647 213.639C589.013 211.883 591.226 210.204 593.287 208.601C626.408 205.814 636.292 207.036 644.992 208.944C653.692 210.853 661.209 213.41 669.489 217.647C677.732 221.884 686.775 227.8 692.079 231.77C695.59 234.404 697.536 236.198 698.681 237.648C699.329 238.412 699.711 239.061 700.054 239.671Z" fill="white"/>
<path d="M675.175 190.546C690.019 201.463 699.368 218.983 698.681 237.648C697.536 236.198 695.59 234.404 692.079 231.77C686.775 227.8 677.732 221.884 669.489 217.647C661.209 213.41 653.692 210.853 644.992 208.944C636.292 207.036 626.409 205.814 593.287 208.601C608.398 197.035 615.724 190.126 620.723 184.706C621.601 183.752 622.44 182.836 623.203 181.958C640.871 176.003 660.37 179.668 675.175 190.546Z" fill="#2B2B37"/>
<path d="M695.284 270.628C695.284 271.391 695.284 272.154 695.246 272.88C695.017 281.812 693.491 288.033 690.972 289.636C674.793 286.774 665.101 279.178 659.186 272.994C653.272 266.849 651.097 262.116 650.219 258.031C649.342 253.947 649.799 250.512 649.571 246.313C649.571 245.741 649.494 245.168 649.456 244.595C652.738 245.855 655.867 247.306 659.034 248.947C673.42 256.314 689.217 267.04 695.284 270.628Z" fill="#2B2B37"/>
<path d="M690.973 289.636C689.065 300.553 685.134 311.279 679.372 320.898C675.022 328.188 669.642 334.906 663.308 340.594C660.064 343.533 656.516 346.167 652.776 348.457C639.802 356.434 624.31 360.137 608.818 356.053C603.704 323.112 598.591 290.171 593.44 257.23C606.986 257.344 615.19 256.543 621.219 253.489C627.668 250.245 631.56 244.366 634.651 240.511C640.298 241.465 645.03 242.84 649.456 244.557V244.595C649.494 245.168 649.571 245.741 649.571 246.313C649.8 250.512 649.342 253.947 650.219 258.031C651.097 262.116 653.272 266.849 659.187 272.994C665.101 279.178 674.793 286.774 690.973 289.636ZM644.954 274.368L646.556 264.215L642.588 263.604L640.985 273.758L644.954 274.368ZM621.524 270.513L623.127 260.36L619.197 259.711L617.594 269.902L621.524 270.513Z" fill="white"/>
<path d="M646.556 264.215L644.954 274.368L640.985 273.758L642.588 263.604L646.556 264.215Z" fill="#2B2B37"/>
<path d="M652.776 348.457C648.769 372.619 645.793 389.948 642.969 402.773C637.589 427.431 632.781 435.218 622.287 442.394C617.785 413.614 613.32 384.833 608.817 356.053C624.31 360.137 639.802 356.434 652.776 348.457Z" fill="white"/>
<path d="M630.262 144.207C632.59 151.345 632.666 159.208 631.598 165.507C630.644 171.079 628.812 175.393 623.203 181.958C622.44 182.836 621.601 183.752 620.723 184.706C615.724 190.126 608.398 197.035 593.287 208.601C591.226 210.204 589.013 211.883 586.647 213.639C582.03 183.943 577.413 154.284 572.796 124.588C584.205 117.297 591.188 116.916 597.599 117.794C605.154 118.862 611.87 121.611 617.556 126.191C623.241 130.772 627.897 137.108 630.262 144.207Z" fill="white"/>
<path d="M622.287 442.394C624.577 457.204 626.905 472.052 629.194 486.862C621.143 486.862 613.129 486.862 605.078 486.862C583.251 346.587 561.425 206.349 539.56 66.0728C535.591 40.4987 511.933 22.7877 486.291 26.1467C357.163 43.0561 227.996 60.0037 98.8683 76.9132C72.3101 80.3867 53.8414 105.045 57.9625 131.535C64.4113 173.064 70.8982 214.632 77.347 256.199C77.8049 258.947 78.2246 261.658 78.6444 264.406C72.4245 263.337 64.6784 262.116 53.8032 259.864C52.0861 248.832 50.369 237.763 48.6518 226.732C43.9202 196.195 39.1504 165.697 34.4187 135.199C28.2371 95.5021 55.9401 58.4769 95.7775 53.2858C224.906 36.3381 354.034 19.4287 483.2 2.51924C521.664 -2.55741 557.151 24.0473 563.104 62.4085C566.347 83.135 569.552 103.861 572.796 124.588C577.413 154.284 582.03 183.943 586.647 213.639C588.021 222.342 589.395 231.045 590.73 239.748C591.646 245.588 592.562 251.39 593.44 257.23C598.591 290.171 603.704 323.112 608.817 356.053C613.32 384.833 617.785 413.614 622.287 442.394Z" fill="#2B2B37"/>
<path d="M634.651 240.511C631.56 244.366 627.668 250.245 621.219 253.489C615.19 256.543 606.986 257.344 593.44 257.23C592.562 251.39 591.646 245.588 590.73 239.748C610.84 238.374 624.272 238.755 634.651 240.511Z" fill="#2B2B37"/>
<path d="M623.127 260.36L621.524 270.513L617.594 269.902L619.197 259.711L623.127 260.36Z" fill="#2B2B37"/>
<path d="M539.56 66.0728C561.425 206.349 583.251 346.587 605.078 486.862C441.149 486.939 277.221 487.015 113.292 487.092L110.201 467.167L104.401 429.989C107.683 425.065 109.438 418.881 108.599 411.056C107.912 404.758 105.546 397.391 98.1434 389.604L97.8381 387.62L96.8079 381.092V381.054C100.28 380.024 103.257 378.573 105.851 376.703C111.728 372.428 115.658 366.092 117.032 359.526C118.367 352.961 117.146 346.167 111.842 338.914C107.836 333.456 101.463 327.769 87.4972 321.28L87.0393 318.379V318.341C98.8303 315.859 103.791 309.332 106.157 301.202C108.561 292.728 108.103 282.46 104.478 276.162C100.891 269.864 94.1749 267.498 84.9024 265.589C82.9564 265.169 80.8958 264.826 78.6445 264.406C78.2247 261.658 77.805 258.947 77.3471 256.199C70.8983 214.632 64.4114 173.064 57.9626 131.535C53.8415 105.045 72.3102 80.3867 98.8684 76.9132C227.997 60.0037 357.163 43.0561 486.291 26.1467C511.933 22.7877 535.592 40.4987 539.56 66.0728ZM348.806 93.5173C350.943 91.1889 352.126 88.1353 351.706 84.929C351.286 81.7608 349.34 79.0889 346.707 77.4094C344.036 75.7299 340.793 75.1192 337.74 75.5391C305.496 79.7378 273.252 83.9747 241.047 88.2116C237.956 88.5933 234.98 90.0056 232.843 92.2958C230.706 94.6242 229.523 97.6779 229.943 100.884C230.362 104.052 232.308 106.724 234.941 108.404C237.612 110.083 240.856 110.694 243.909 110.274C276.152 106.075 308.396 101.838 340.602 97.6015C343.693 97.2198 346.669 95.8075 348.806 93.5173Z" fill="white"/>
<path d="M351.706 84.929C352.126 88.1353 350.943 91.1889 348.806 93.5173C346.669 95.8075 343.693 97.2198 340.602 97.6015C308.396 101.838 276.152 106.075 243.909 110.274C240.856 110.694 237.612 110.083 234.941 108.404C232.308 106.724 230.362 104.052 229.943 100.884C229.523 97.6779 230.706 94.6242 232.843 92.2958C234.98 90.0056 237.956 88.5933 241.047 88.2116C273.252 83.9747 305.496 79.7378 337.74 75.5391C340.793 75.1192 344.036 75.7299 346.707 77.4094C349.34 79.0889 351.286 81.7608 351.706 84.929Z" fill="#2B2B37"/>
<path d="M87.4971 321.28C101.463 327.769 107.836 333.456 111.842 338.914C117.146 346.167 118.367 352.961 117.032 359.526C115.658 366.092 111.728 372.428 105.851 376.703C103.257 378.573 100.28 380.024 96.8078 381.054C94.7091 381.703 92.4577 382.161 89.9393 382.467C87.23 382.81 84.2537 382.963 80.972 382.887C69.7535 382.657 55.1388 380.024 44.2255 377.237C37.5859 375.558 32.3582 373.802 27.7792 371.55C24.8028 370.138 22.0936 368.496 19.4988 366.588C12.8211 361.702 6.71575 354.793 3.62492 345.67C0.495928 336.548 0.381452 325.173 14.6909 300.019C18.2778 307.233 25.1081 311.813 38.7307 315.249C52.3532 318.646 72.7298 320.898 85.5892 318.646C86.0853 318.57 86.5813 318.455 87.0392 318.341V318.379L87.4971 321.28Z" fill="white"/>
<path d="M110.201 467.167L113.292 487.091C109.591 487.091 105.928 487.091 102.226 487.091C103.753 486.023 105.012 484.801 106.118 483.465C109.476 479.343 110.85 474.266 110.392 469.113C110.316 468.464 110.24 467.815 110.125 467.167H110.201Z" fill="#2B2B37"/>
<path d="M110.392 469.113C110.85 474.266 109.476 479.343 106.119 483.465C105.012 484.801 103.753 486.023 102.226 487.092C86.238 487.092 70.2878 487.092 54.2994 487.092C46.7059 484.152 42.6993 480.03 40.2571 473.579C37.6623 466.556 36.8992 456.784 45.6375 440.562C55.4442 443.043 68.2654 444.15 78.0721 443.348C80.8958 443.119 83.4906 442.699 85.8564 442.165C98.1816 448.769 101.616 451.25 104.363 454.685C107.187 458.158 109.324 462.624 110.125 467.167C110.24 467.816 110.316 468.464 110.392 469.113Z" fill="white"/>
<path d="M104.401 429.989L110.201 467.167H110.125C109.324 462.624 107.187 458.158 104.363 454.685C101.616 451.25 98.1814 448.768 85.8562 442.165C92.6102 440.562 97.5327 437.737 101.349 433.768C102.455 432.622 103.485 431.363 104.401 429.989Z" fill="#2B2B37"/>
<path d="M108.599 411.056C109.438 418.881 107.683 425.065 104.401 429.989C103.486 431.363 102.455 432.622 101.349 433.768C97.5328 437.737 92.6104 440.562 85.8563 442.165C83.4905 442.699 80.8957 443.119 78.072 443.348C68.2653 444.15 55.4441 443.043 45.6374 440.562C44.4544 440.257 43.3097 439.951 42.2413 439.608C32.1674 436.516 26.8253 431.859 23.3147 425.904C19.8423 419.988 18.2015 412.85 17.9725 405.407C17.7436 397.926 18.8883 390.215 27.7411 371.588L27.7792 371.55C32.3582 373.802 37.5859 375.558 44.2255 377.237C55.1388 380.024 69.7535 382.657 80.972 382.887C84.2537 382.963 87.23 382.81 89.9393 382.467C93.1827 384.871 95.892 387.276 98.1433 389.605C105.546 397.391 107.912 404.758 108.599 411.056Z" fill="white"/>
<path d="M78.6443 264.406C80.8957 264.826 82.9562 265.169 84.9023 265.589C94.1748 267.498 100.891 269.864 104.478 276.162C108.103 282.46 108.561 292.728 106.157 301.202C103.791 309.332 98.8301 315.859 87.0392 318.341C86.5813 318.455 86.0852 318.57 85.5892 318.646C72.7298 320.898 52.3532 318.646 38.7306 315.249C25.1081 311.813 18.2777 307.233 14.6908 300.019C11.1039 292.843 10.7223 283.033 11.1421 274.903C11.5618 266.772 12.7447 260.283 17.5908 251.046C21.2159 244.061 26.9397 235.511 48.6518 226.732C50.3689 237.763 52.0861 248.832 53.8032 259.864C64.6783 262.116 72.4245 263.337 78.6443 264.406Z" fill="white"/>
<path d="M97.838 387.62L98.1433 389.604C95.8919 387.276 93.1827 384.871 89.9392 382.467C92.4577 382.161 94.709 381.703 96.8077 381.054V381.092L97.838 387.62Z" fill="#2B2B37"/>
<path d="M113.292 489C112.377 489 111.537 488.313 111.423 487.397L102.532 430.294C102.379 429.263 103.066 428.271 104.134 428.118C105.165 427.966 106.157 428.653 106.309 429.721L115.2 486.824C115.353 487.855 114.666 488.847 113.598 489C113.483 489 113.407 489 113.292 489Z" fill="#2B2B37"/>
<path d="M98.1435 391.513C97.2277 391.513 96.3882 390.826 96.2737 389.91L94.9382 381.398C94.7855 380.367 95.4724 379.375 96.5408 379.222C97.5711 379.069 98.5632 379.757 98.7159 380.825L100.051 389.337C100.204 390.368 99.479 391.36 98.4487 391.513C98.3343 391.513 98.2579 391.513 98.1435 391.513Z" fill="#2B2B37"/>
<path d="M87.4973 323.188C86.5815 323.188 85.7801 322.501 85.6275 321.585L85.1696 318.684C85.017 317.653 85.7038 316.661 86.7723 316.508C87.7644 316.356 88.7947 317.043 88.9473 318.111L89.4052 321.012C89.5578 322.043 88.871 323.035 87.8025 323.188C87.6881 323.188 87.6117 323.188 87.4973 323.188Z" fill="#2B2B37"/>
<path d="M605.078 488.771C604.162 488.771 603.323 488.084 603.208 487.168C581.382 346.892 559.555 206.654 537.69 66.3782C533.836 41.6438 511.399 24.7725 486.558 28.0552L99.1356 78.7835C86.8104 80.3867 75.9353 86.7611 68.4562 96.7236C61.0153 106.686 57.9627 118.939 59.8706 131.23L68.2273 184.935C71.8905 208.601 75.5918 232.266 79.2551 255.894C79.713 258.642 80.1327 261.352 80.5524 264.1C80.5524 265.169 79.713 266.162 78.6445 266.162C77.5761 266.162 76.7366 265.475 76.7366 264.406C76.355 261.925 75.9353 259.215 75.4774 256.466C71.8142 232.801 68.1128 209.135 64.4496 185.47L56.0929 131.84C54.0323 118.519 57.314 105.236 65.4035 94.4334C73.4931 83.6693 85.2841 76.7605 98.6395 75.0047L486.062 24.2382C512.964 20.7265 537.309 38.9719 541.468 65.7675C563.333 206.043 585.159 346.281 606.986 486.557C607.139 487.588 606.452 488.58 605.383 488.733C605.269 488.771 605.193 488.771 605.078 488.771Z" fill="#2B2B37"/>
<path d="M629.194 488.771C628.278 488.771 627.439 488.084 627.324 487.168L606.948 356.358C601.835 323.417 596.721 290.476 591.57 257.535C590.807 252.344 589.967 247.191 589.166 242.038L588.861 240.053C587.64 232.076 586.38 224.136 585.121 216.159L561.234 62.7138C555.472 25.6886 520.595 -0.496215 483.467 4.42776C354.301 21.3372 225.173 38.2467 96.0446 55.1943C77.3088 57.6372 60.7481 67.2943 49.415 82.4479C38.082 97.6015 33.4267 116.229 36.3267 134.932L50.5598 226.426C50.5598 226.465 50.5598 226.465 50.5598 226.503L55.4822 258.299C63.8771 260.016 70.4022 261.123 75.7062 262.001L80.9721 262.917C82.4984 263.184 83.9103 263.452 85.284 263.757C95.2815 265.818 102.226 268.452 106.118 275.246C109.858 281.773 110.621 292.423 107.988 301.775C104.974 312.081 98.4486 317.921 87.4208 320.249C86.9629 320.363 86.4287 320.478 85.8563 320.554C72.8443 322.845 52.048 320.554 38.2346 317.119C24.4213 313.646 16.8659 308.798 12.9356 300.897C9.88292 294.751 8.62369 286.01 9.19606 274.826C9.61581 266.429 10.875 259.711 15.8738 250.168C19.6896 242.84 25.5279 234.289 46.515 225.548L32.549 135.505C29.4963 115.771 34.3806 96.1129 46.3624 80.1577C58.306 64.2025 75.7825 54.011 95.5486 51.4154C224.677 34.4678 353.805 17.5583 482.971 0.648895C522.198 -4.5041 558.944 23.0549 565.012 62.1413L588.899 215.586C590.158 223.564 591.417 231.541 592.638 239.481L592.944 241.427C593.745 246.618 594.584 251.771 595.348 256.963C600.499 289.904 605.612 322.845 610.725 355.786L631.102 486.595C631.255 487.626 630.568 488.618 629.499 488.771C629.385 488.771 629.309 488.771 629.194 488.771ZM47.1255 229.404C28.0082 237.534 22.7041 245.282 19.2699 251.924C14.5764 260.856 13.4316 267.154 13.0501 274.979C12.5158 285.476 13.6224 293.606 16.408 299.141C19.8423 306.011 26.4437 310.134 39.1886 313.378C52.5822 316.699 72.6917 318.913 85.2458 316.737C85.7419 316.661 86.1616 316.546 86.5432 316.47C96.2354 314.409 101.692 309.561 104.287 300.668C106.615 292.423 106.004 282.728 102.799 277.117C99.6315 271.544 93.6788 269.368 84.4826 267.459C83.1471 267.154 81.7352 266.925 80.2852 266.658L75.0575 265.742C69.4482 264.788 62.5034 263.604 53.4217 261.734C52.6585 261.581 52.048 260.932 51.9335 260.169L47.1255 229.404Z" fill="#2B2B37"/>
<path d="M649.456 246.466C649.227 246.466 648.998 246.428 648.769 246.351C644.076 244.519 639.497 243.298 634.346 242.42C623.699 240.626 609.848 240.397 590.883 241.694C589.815 241.771 588.937 240.969 588.861 239.939C588.784 238.87 589.586 237.992 590.616 237.916C609.924 236.58 624.043 236.847 634.994 238.717C640.413 239.633 645.221 240.969 650.181 242.878C651.173 243.259 651.669 244.366 651.288 245.359C650.944 246.008 650.219 246.466 649.456 246.466Z" fill="#2B2B37"/>
<path d="M696.391 273.185C696.048 273.185 695.666 273.07 695.361 272.88L694.979 272.651C694.75 272.536 694.521 272.383 694.254 272.231C692.613 271.238 690.133 269.673 687.119 267.765C679.678 263.032 668.421 255.894 658.156 250.626C654.836 248.909 651.784 247.496 648.769 246.351C647.777 245.97 647.281 244.863 647.663 243.87C648.044 242.878 649.151 242.382 650.143 242.763C653.272 243.985 656.477 245.435 659.912 247.191C670.329 252.535 681.662 259.749 689.179 264.482C691.583 266.009 693.682 267.345 695.284 268.299C696.963 262.154 698.299 254.1 698.871 248.641C699.52 243.03 699.1 241.885 698.375 240.473C698.108 240.015 697.803 239.481 697.231 238.832C696.086 237.381 694.102 235.625 690.934 233.259C685.669 229.327 676.739 223.487 668.612 219.289C660.904 215.357 653.463 212.723 644.572 210.738C636.253 208.906 626.676 207.647 593.44 210.433C592.371 210.509 591.455 209.746 591.379 208.677C591.303 207.608 592.066 206.692 593.134 206.616C626.905 203.791 636.788 205.089 645.411 206.998C654.646 209.021 662.354 211.769 670.367 215.853C678.685 220.128 687.844 226.121 693.224 230.167C696.696 232.763 698.833 234.671 700.169 236.389C700.894 237.229 701.352 237.992 701.695 238.679C702.916 241.046 703.298 242.992 702.611 249.061C701.924 255.436 700.245 265.246 698.184 271.811C697.994 272.383 697.574 272.841 697.002 273.032C696.849 273.147 696.62 273.185 696.391 273.185Z" fill="#2B2B37"/>
<path d="M621.715 359.603C617.212 359.603 612.71 359.03 608.36 357.885C607.329 357.618 606.719 356.587 606.986 355.557C607.253 354.526 608.322 353.915 609.314 354.182C623.089 357.809 638.161 355.175 651.784 346.816C655.485 344.563 658.92 341.968 662.049 339.181C668.078 333.761 673.343 327.31 677.77 319.905C683.341 310.63 687.233 300.057 689.141 289.293C689.217 288.758 689.561 288.3 689.981 287.995C691.125 287.27 693.11 283.262 693.377 272.803C693.415 272.04 693.415 271.315 693.415 270.589C693.415 269.521 694.254 268.681 695.323 268.681C696.391 268.681 697.231 269.521 697.231 270.589C697.231 271.391 697.231 272.193 697.193 272.956C697.04 279.445 696.086 287.575 692.766 290.667C690.744 301.622 686.699 312.386 681.051 321.852C676.434 329.563 670.901 336.319 664.643 341.968C661.362 344.945 657.737 347.655 653.845 350.022C643.542 356.358 632.514 359.603 621.715 359.603Z" fill="#2B2B37"/>
<path d="M113.292 489H54.2992C54.0703 489 53.8413 488.962 53.6124 488.886C45.7136 485.832 41.2109 481.442 38.4635 474.266C36.174 468.045 34.2279 457.7 43.9583 439.684C44.4544 438.768 45.6373 438.424 46.5531 438.921C47.4689 439.417 47.8123 440.562 47.3162 441.516C38.349 458.197 39.9898 467.434 42.0504 472.969C44.3399 478.999 48.0031 482.587 54.6808 485.221L759.963 484.992C741.723 450.143 732.909 444.188 713.371 436.478C700.359 430.638 687.424 424.836 674.526 419.034C663.766 414.224 653.005 409.377 642.244 404.529C641.29 404.109 640.87 402.964 641.29 402.01C641.748 401.056 642.855 400.598 643.809 401.056C654.569 405.903 665.33 410.751 676.091 415.56C688.988 421.362 701.924 427.164 714.86 432.966C736.801 441.592 746.035 449.608 764.809 486.023C765.114 486.633 765.076 487.321 764.733 487.893C764.389 488.466 763.779 488.809 763.092 488.809H605.078L113.292 489Z" fill="#2B2B37"/>
<path d="M82.613 384.795C82.0406 384.795 81.5064 384.795 80.934 384.795C69.0668 384.566 53.956 381.703 43.7677 379.07C36.6703 377.275 31.4807 375.481 26.9399 373.229C23.9253 371.817 21.1398 370.138 18.3542 368.115C10.3791 362.275 4.65534 354.717 1.79346 346.281C-1.75527 335.975 -1.1829 324.028 13.012 299.065C13.5463 298.148 14.691 297.843 15.6068 298.339C16.5226 298.874 16.8279 300.019 16.3318 300.935C2.86189 324.639 2.2132 335.708 5.41851 345.022C8.73829 354.793 15.4923 361.282 20.6056 365.023C23.1622 366.893 25.7951 368.458 28.5807 369.794C32.8926 371.932 37.8532 373.611 44.6835 375.367C54.681 377.924 69.4483 380.711 81.0103 380.94C84.063 381.016 87.0012 380.864 89.7105 380.52C92.1526 380.215 94.2895 379.795 96.2355 379.184C99.479 378.23 102.265 376.894 104.745 375.1C110.049 371.245 113.827 365.405 115.162 359.068C116.498 352.503 114.895 346.281 110.316 339.983C107.187 335.708 101.654 329.906 86.6959 322.959C85.1696 322.234 83.5288 321.509 81.8117 320.822C80.8577 320.402 80.3616 319.295 80.7814 318.341C81.2011 317.386 82.3077 316.89 83.2617 317.31C85.0551 318.035 86.7723 318.799 88.2986 319.524C100.547 325.211 108.294 330.822 113.369 337.769C118.635 344.983 120.466 352.198 118.902 359.87C117.375 367.122 113.025 373.802 106.958 378.192C104.134 380.215 100.967 381.741 97.3421 382.848C95.1671 383.497 92.8394 383.993 90.1684 384.337C87.8025 384.642 85.2841 384.795 82.613 384.795Z" fill="#2B2B37"/>
<path d="M71.2799 445.524C62.6561 445.524 53.002 444.417 45.1413 442.432C43.9203 442.127 42.7374 441.783 41.6308 441.44C32.0148 438.501 25.8332 433.997 21.6358 426.897C18.1633 420.98 16.2936 413.804 16.0265 405.483C15.7594 397.315 17.3239 388.994 25.9858 370.787C26.4437 369.832 27.5885 369.451 28.5424 369.87C29.4964 370.328 29.9161 371.474 29.4582 372.428C20.262 391.78 19.6897 399.033 19.8805 405.369C20.1094 413.003 21.8265 419.606 24.9555 424.95C28.6187 431.172 34.1136 435.142 42.8137 437.775C43.8821 438.119 44.9887 438.424 46.1335 438.692C55.8257 441.134 68.3035 442.203 77.9194 441.44C80.4379 441.249 82.9945 440.867 85.4366 440.295C91.5038 438.844 96.2736 436.287 99.975 432.432C101.043 431.325 101.997 430.141 102.799 428.92C106.118 423.958 107.416 418.003 106.691 411.247C105.851 403.613 102.722 397.162 96.7315 390.902C94.442 388.498 91.7328 386.169 88.7946 383.993C87.9551 383.383 87.7643 382.161 88.413 381.322C89.0617 380.482 90.2446 380.291 91.0841 380.94C94.2131 383.268 97.075 385.749 99.5171 388.269C106.004 395.101 109.591 402.468 110.507 410.827C111.346 418.499 109.82 425.294 106.004 431.019C105.05 432.432 103.982 433.806 102.722 435.065C98.525 439.455 93.1446 442.356 86.3143 443.997C83.6432 444.608 80.9721 444.99 78.2247 445.219C76.0497 445.409 73.722 445.524 71.2799 445.524Z" fill="#2B2B37"/>
<path d="M102.226 489C101.616 489 101.043 488.733 100.662 488.198C100.051 487.321 100.28 486.137 101.12 485.527C102.379 484.61 103.562 483.542 104.63 482.244C107.569 478.618 108.904 474.152 108.484 469.266C108.408 468.693 108.332 468.083 108.255 467.472C107.53 463.388 105.584 459.189 102.875 455.868C100.357 452.738 97.2658 450.448 84.9406 443.806C84.0248 443.31 83.6814 442.165 84.1775 441.211C84.6735 440.295 85.8183 439.913 86.7722 440.447C98.8685 446.936 102.799 449.608 105.851 453.463C108.98 457.319 111.155 462.052 111.995 466.823C112.109 467.51 112.186 468.197 112.3 468.884C112.834 474.724 111.155 480.297 107.607 484.649C106.271 486.252 104.897 487.55 103.333 488.618C102.99 488.885 102.608 489 102.226 489Z" fill="#2B2B37"/>
<path d="M644.954 276.277C644.839 276.277 644.763 276.277 644.648 276.239L640.68 275.628C640.184 275.552 639.726 275.284 639.421 274.865C639.115 274.445 639.001 273.948 639.077 273.452L640.68 263.299C640.832 262.268 641.825 261.543 642.855 261.696L646.823 262.306C647.319 262.383 647.777 262.65 648.082 263.07C648.388 263.49 648.502 263.986 648.426 264.482L646.823 274.635C646.709 275.59 645.869 276.277 644.954 276.277ZM643.16 272.154L643.351 272.193L644.343 265.818L644.152 265.78L643.16 272.154Z" fill="#2B2B37"/>
<path d="M621.524 272.422C621.41 272.422 621.333 272.422 621.219 272.383L617.289 271.773C616.793 271.696 616.335 271.429 616.029 271.009C615.724 270.589 615.61 270.093 615.686 269.597L617.289 259.406C617.365 258.909 617.632 258.451 618.052 258.146C618.472 257.841 619.006 257.726 619.464 257.802L623.394 258.451C624.424 258.604 625.149 259.596 624.958 260.627L623.356 270.78C623.279 271.735 622.44 272.422 621.524 272.422ZM619.769 268.299L619.922 268.337L620.914 261.925L620.761 261.887L619.769 268.299Z" fill="#2B2B37"/>
<path d="M636.673 295.018C626.332 295.018 617.365 291.469 609.962 284.369C609.199 283.644 609.161 282.422 609.886 281.659C610.611 280.895 611.832 280.857 612.595 281.582C621.83 290.4 633.239 293.11 647.51 289.865C648.54 289.598 649.571 290.285 649.8 291.316C650.029 292.347 649.38 293.377 648.35 293.606C644.305 294.56 640.413 295.018 636.673 295.018Z" fill="#2B2B37"/>
<path d="M690.973 291.545C690.858 291.545 690.744 291.545 690.629 291.507C677.35 289.14 666.628 283.529 657.813 274.292C652.509 268.795 649.494 263.719 648.35 258.413C647.739 255.512 647.739 252.917 647.739 250.359C647.739 249.1 647.739 247.764 647.663 246.389C647.663 245.97 647.625 245.626 647.587 245.282L647.548 244.672L651.364 244.519L651.402 244.977C651.441 245.435 651.479 245.855 651.479 246.275C651.555 247.649 651.555 249.023 651.555 250.359C651.555 252.802 651.555 255.092 652.089 257.573C652.7 260.474 654.264 265.055 660.56 271.62C668.803 280.247 678.876 285.514 691.316 287.69C692.346 287.881 693.033 288.873 692.881 289.904C692.69 290.896 691.888 291.545 690.973 291.545Z" fill="#2B2B37"/>
<path d="M595.958 259.138C595.119 259.138 594.279 259.138 593.44 259.138C592.371 259.138 591.532 258.26 591.532 257.23C591.532 256.199 592.409 255.321 593.44 255.321C607.749 255.474 615.037 254.482 620.341 251.771C625.493 249.176 628.965 244.71 631.751 241.084C632.247 240.435 632.705 239.862 633.163 239.29C633.811 238.488 635.032 238.335 635.834 238.984C636.635 239.633 636.788 240.855 636.139 241.656C635.719 242.191 635.261 242.801 634.765 243.412C631.751 247.306 627.973 252.191 622.058 255.169C615.762 258.375 607.329 259.138 595.958 259.138Z" fill="#2B2B37"/>
<path d="M681.815 322.997C680.899 322.997 679.983 322.921 679.067 322.768C678.037 322.616 677.312 321.623 677.503 320.593C677.655 319.562 678.686 318.837 679.678 319.028C682.349 319.447 685.096 319.066 687.805 317.882C689.675 317.043 691.392 315.936 692.957 314.523C696.544 311.355 699.329 306.851 700.894 301.775C702.458 296.889 702.725 291.545 701.733 286.735C701.085 283.606 699.253 277.842 694.216 274.483C693.338 273.91 693.109 272.727 693.682 271.849C694.254 270.971 695.437 270.742 696.315 271.315C700.856 274.368 704.099 279.559 705.435 285.934C706.579 291.354 706.236 297.385 704.519 302.882C702.764 308.569 699.558 313.722 695.475 317.31C693.644 318.989 691.583 320.325 689.332 321.318C686.851 322.463 684.333 322.997 681.815 322.997Z" fill="#2B2B37"/>
<path d="M586.647 215.548C586.075 215.548 585.503 215.281 585.121 214.784C584.472 213.945 584.663 212.761 585.503 212.112C587.868 210.357 590.043 208.715 592.104 207.112C608.245 194.745 615.114 187.951 619.311 183.447C620.189 182.492 621.028 181.576 621.753 180.736C627.324 174.209 628.851 170.24 629.69 165.239C630.873 158.33 630.415 150.925 628.431 144.856C626.256 138.367 621.982 132.26 616.335 127.718C611.031 123.443 604.62 120.771 597.294 119.74C591.99 119.015 585.35 118.862 573.788 126.267C572.91 126.84 571.727 126.573 571.155 125.695C570.583 124.817 570.85 123.634 571.727 123.061C583.137 115.771 590.387 114.969 597.828 116C605.841 117.145 612.862 120.084 618.739 124.779C624.92 129.779 629.652 136.497 632.056 143.673C634.231 150.315 634.727 158.407 633.468 165.888C632.514 171.461 630.758 176.08 624.653 183.256C623.89 184.134 623.05 185.05 622.173 186.004C617.823 190.699 610.802 197.646 594.432 210.166C592.371 211.769 590.158 213.448 587.754 215.204C587.449 215.433 587.067 215.548 586.647 215.548Z" fill="#2B2B37"/>
<path d="M698.681 239.557C698.642 239.557 698.642 239.557 698.604 239.557C697.536 239.519 696.735 238.641 696.773 237.572C697.421 220.014 688.912 203.028 674.03 192.073C659.263 181.233 640.489 178.141 623.814 183.752C622.822 184.095 621.753 183.561 621.41 182.569C621.066 181.576 621.601 180.507 622.593 180.164C640.451 174.133 660.56 177.454 676.282 189.019C692.194 200.7 701.275 218.907 700.55 237.725C700.55 238.755 699.711 239.557 698.681 239.557Z" fill="#2B2B37"/>
<path d="M622.287 444.303C621.677 444.303 621.066 443.997 620.723 443.463C620.112 442.585 620.341 441.402 621.219 440.791C630.759 434.264 635.643 427.469 641.1 402.353C643.809 390.101 646.633 373.84 650.906 348.113C651.097 347.083 652.051 346.357 653.119 346.548C654.15 346.701 654.875 347.693 654.684 348.762C650.41 374.527 647.586 390.826 644.839 403.155C639.65 426.973 634.842 436.096 623.356 443.959C623.051 444.188 622.669 444.303 622.287 444.303Z" fill="#2B2B37"/>
<path d="M675.289 419.187C674.335 419.187 673.496 418.461 673.381 417.469C673.267 416.438 674.03 415.484 675.06 415.369C699.787 412.736 703.26 411.171 705.129 410.331C706.121 409.873 706.427 409.644 706.503 409.529C706.656 409.033 705.816 406.438 705.32 404.911C703.374 398.956 699.52 387.123 686.661 319.944C686.47 318.913 687.157 317.921 688.187 317.73C689.217 317.539 690.209 318.226 690.4 319.257C703.183 386.207 706.999 397.887 708.831 403.498C710.662 409.148 711.464 411.591 706.694 413.843C704.442 414.835 700.779 416.515 675.442 419.187C675.442 419.187 675.366 419.187 675.289 419.187Z" fill="#2B2B37"/>
<path d="M242.001 112.297C239.139 112.297 236.315 111.496 233.911 110.007C230.668 107.946 228.492 104.701 228.035 101.113C227.539 97.487 228.76 93.899 231.431 90.998C233.835 88.4025 237.154 86.7611 240.818 86.3031C272.985 82.0662 305.267 77.8293 337.511 73.6306C341.098 73.1343 344.761 73.8977 347.738 75.7681C350.981 77.8293 353.156 81.0738 353.614 84.6618C354.11 88.288 352.889 91.876 350.218 94.7769C347.814 97.3343 344.494 99.0138 340.831 99.4719C308.625 103.709 276.419 107.946 244.176 112.144C243.451 112.259 242.726 112.297 242.001 112.297ZM339.61 77.2949C339.076 77.2949 338.541 77.3331 338.007 77.4094C305.763 81.6082 273.519 85.8451 241.314 90.082C238.528 90.4255 236.048 91.6469 234.254 93.5936C232.385 95.6167 231.545 98.1359 231.85 100.617C232.156 103.06 233.682 105.312 235.972 106.762C238.147 108.137 240.932 108.747 243.641 108.366C275.885 104.167 308.129 99.9299 340.335 95.693C343.12 95.3495 345.601 94.0898 347.394 92.1813C349.264 90.1583 350.103 87.6391 349.798 85.158C349.493 82.7151 347.966 80.463 345.677 79.0126C343.922 77.9056 341.785 77.2949 339.61 77.2949Z" fill="#2B2B37"/>
</g>
<defs>
<clipPath id="clip0_10_285">
<rect width="765" height="489" fill="white"/>
</clipPath>
</defs>
</svg>
