<svg width="462" height="61" viewBox="0 0 462 61" fill="none" xmlns="http://www.w3.org/2000/svg">
<path d="M3.57349 32.6621C1.94713 32.9785 0.372181 31.9166 0.0557365 30.2903C-0.260708 28.6639 0.801183 27.089 2.42754 26.7725L3.00051 29.7173L3.57349 32.6621ZM165.522 23.2697L164.605 26.1262L165.522 23.2697ZM461.695 48.1555L427.956 56.0134L438.02 22.8665L461.695 48.1555ZM3.00051 29.7173L2.42754 26.7725C21.4722 23.0669 52.4552 18.3022 83.6032 16.0347C114.609 13.7775 146.294 13.9483 166.438 20.4132L165.522 23.2697L164.605 26.1262C145.681 20.0531 115.053 19.761 84.0388 22.0188C53.1671 24.2662 22.4239 28.9943 3.57349 32.6621L3.00051 29.7173ZM165.522 23.2697L166.438 20.4132C178.809 24.3834 187.851 28.6505 194.02 32.8968C200.082 37.0693 203.846 41.5535 204.674 46.1229C205.58 51.119 202.845 55.0898 198.614 57.5024C194.484 59.8572 188.626 60.9962 181.863 60.8377L181.933 57.8385L182.003 54.8393C188.148 54.9833 192.798 53.9115 195.642 52.2901C198.384 50.7267 199.09 48.956 198.77 47.1934C198.373 45.004 196.245 41.7121 190.618 37.8392C185.098 34.04 176.652 29.9923 164.605 26.1262L165.522 23.2697ZM181.933 57.8385L181.863 60.8377C174.581 60.6671 169.231 57.7803 165.955 53.0641C162.767 48.4743 161.814 42.545 162.368 36.6584C163.466 25.0008 170.652 11.9167 181.75 6.46039L183.073 9.15261L184.397 11.8448C175.585 16.1773 169.292 27.1338 168.342 37.2207C167.873 42.2064 168.754 46.5753 170.883 49.6413C172.925 52.5809 176.376 54.7075 182.003 54.8393L181.933 57.8385ZM183.073 9.15261L181.75 6.46039C186.982 3.88805 195.968 1.81231 208.629 0.756202C221.377 -0.307207 238.113 -0.35608 259.026 1.30195C300.856 4.61834 359.534 14.7747 436.685 37.4272L435.84 40.3057L434.995 43.1842C358.151 20.6218 299.886 10.5603 258.552 7.28318C237.883 5.64448 221.481 5.70497 209.127 6.73544C196.686 7.7732 188.605 9.77586 184.397 11.8448L183.073 9.15261Z" fill="#D9D9D9"/>
</svg>
