<svg width="40" height="40" viewBox="0 0 40 40" fill="none" xmlns="http://www.w3.org/2000/svg">
<path fill-rule="evenodd" clip-rule="evenodd" d="M23.6608 1.35671C22.3592 1.17754 21.2258 1.97504 20.815 3.11171C20.3983 4.26171 19.7375 6.26171 19.2608 8.55004C19.7173 8.76515 20.1665 8.99556 20.6075 9.24088C24.8667 11.6193 28.3815 15.1341 30.76 19.3934C31.0042 19.8325 31.24 20.2809 31.4558 20.7384C33.3004 20.3467 35.1155 19.8276 36.8883 19.185C38.025 18.7742 38.8217 17.6409 38.6433 16.3392C37.5992 8.76171 31.2392 2.40088 23.6608 1.35671ZM29.125 21.6584C28.951 21.3031 28.7673 20.9527 28.5742 20.6075C26.4223 16.7558 23.2434 13.5769 19.3917 11.425C19.0423 11.2305 18.6871 11.0466 18.3267 10.8734C14.6875 11.115 11.8092 11.5109 9.86833 11.8392C7.65 12.2142 5.93 13.8475 5.3125 15.9509C3.66666 21.5584 2.67083 26.0884 2.08333 29.225C1.85653 30.4268 1.65648 31.6335 1.48333 32.8442C1.42845 33.2316 1.37845 33.6197 1.33333 34.0084C1.08 34.9167 1.29333 35.8034 1.6975 36.5334L12.4492 25.7834C12.0679 24.9851 11.9811 24.0778 12.2041 23.2217C12.4271 22.3657 12.9455 21.616 13.6678 21.1053C14.3901 20.5945 15.2697 20.3555 16.1511 20.4306C17.0326 20.5057 17.8591 20.8899 18.4846 21.5154C19.1101 22.141 19.4944 22.9675 19.5694 23.8489C19.6445 24.7303 19.4055 25.6099 18.8948 26.3322C18.384 27.0545 17.6343 27.573 16.7783 27.796C15.9222 28.019 15.0149 27.9322 14.2167 27.5509L3.46583 38.3009C4.19666 38.705 5.0825 38.9175 5.98916 38.6642L6.20416 38.6392C6.42139 38.6142 6.73833 38.5725 7.155 38.5142C7.98666 38.3967 9.20666 38.2059 10.7742 37.9134C13.91 37.3275 18.4408 36.33 24.0467 34.685C26.15 34.0675 27.7842 32.3467 28.1592 30.1284C28.4867 28.185 28.8825 25.3042 29.125 21.6584Z" fill="white"/>
</svg>
