<svg width="40" height="40" viewBox="0 0 40 40" fill="none" xmlns="http://www.w3.org/2000/svg">
<g clip-path="url(#clip0_102_212)">
<path d="M24.3667 4.43666C24.6831 4.52517 24.9789 4.67515 25.2372 4.87804C25.4956 5.08094 25.7114 5.33276 25.8724 5.61911C26.0333 5.90546 26.1363 6.22073 26.1754 6.54689C26.2144 6.87306 26.1888 7.20372 26.1 7.51999L18.715 33.8317C18.536 34.4702 18.1107 35.0114 17.5326 35.3363C16.9545 35.6612 16.2711 35.7432 15.6325 35.5642C14.994 35.3851 14.4528 34.9598 14.1279 34.3817C13.803 33.8036 13.721 33.1202 13.9 32.4817L21.285 6.16666C21.3737 5.85046 21.5238 5.55483 21.7268 5.29667C21.9298 5.0385 22.1816 4.82285 22.468 4.66204C22.7543 4.50123 23.0695 4.39841 23.3956 4.35945C23.7217 4.32049 24.0522 4.34616 24.3684 4.43499L24.3667 4.43666ZM12.6 11.1617C13.0682 11.6304 13.3312 12.2658 13.3312 12.9283C13.3312 13.5908 13.0682 14.2262 12.6 14.695L7.30005 20L12.6034 25.3033C13.0722 25.7723 13.3354 26.4083 13.3353 27.0714C13.3351 27.7345 13.0715 28.3704 12.6025 28.8392C12.1336 29.3079 11.4976 29.5712 10.8345 29.571C10.1714 29.5709 9.53549 29.3073 9.06672 28.8383L1.99505 21.7667C1.52688 21.2979 1.26392 20.6625 1.26392 20C1.26392 19.3375 1.52688 18.7021 1.99505 18.2333L9.06505 11.1617C9.29722 10.9293 9.57289 10.745 9.8763 10.6193C10.1797 10.4936 10.5049 10.4289 10.8334 10.4289C11.1618 10.4289 11.487 10.4936 11.7905 10.6193C12.0939 10.745 12.3679 10.9293 12.6 11.1617ZM27.4 14.695C27.1544 14.4661 26.9574 14.1901 26.8208 13.8834C26.6841 13.5768 26.6107 13.2457 26.6047 12.9101C26.5988 12.5744 26.6606 12.241 26.7863 11.9297C26.912 11.6184 27.0992 11.3356 27.3366 11.0982C27.574 10.8608 27.8568 10.6737 28.1681 10.5479C28.4794 10.4222 28.8128 10.3604 29.1485 10.3664C29.4841 10.3723 29.8152 10.4457 30.1218 10.5824C30.4285 10.719 30.7045 10.916 30.9334 11.1617L38.005 18.2317C38.4737 18.7005 38.737 19.3362 38.737 19.9992C38.737 20.6621 38.4737 21.2978 38.005 21.7667L30.9351 28.8383C30.7029 29.0705 30.4274 29.2548 30.124 29.3805C29.8207 29.5062 29.4956 29.571 29.1673 29.571C28.839 29.5711 28.5138 29.5065 28.2105 29.3809C27.9071 29.2554 27.6314 29.0713 27.3992 28.8392C27.167 28.607 26.9828 28.3315 26.857 28.0282C26.7313 27.7248 26.6666 27.3997 26.6665 27.0714C26.6664 26.7431 26.731 26.4179 26.8566 26.1146C26.9822 25.8112 27.1663 25.5355 27.3984 25.3033L32.7017 20L27.4 14.695Z" fill="white"/>
</g>
<defs>
<clipPath id="clip0_102_212">
<rect width="40" height="40" fill="white"/>
</clipPath>
</defs>
</svg>
