<svg width="40" height="40" viewBox="0 0 40 40" fill="none" xmlns="http://www.w3.org/2000/svg">
<path d="M3.33342 35C2.8612 35 2.46564 34.84 2.14675 34.52C1.82786 34.2 1.66786 33.8044 1.66675 33.3333C1.66564 32.8622 1.82564 32.4667 2.14675 32.1467C2.46786 31.8267 2.86342 31.6667 3.33342 31.6667H36.6668C37.139 31.6667 37.5351 31.8267 37.8551 32.1467C38.1751 32.4667 38.3345 32.8622 38.3334 33.3333C38.3323 33.8044 38.1723 34.2006 37.8534 34.5217C37.5345 34.8428 37.139 35.0022 36.6668 35H3.33342ZM6.66675 30C5.75009 30 4.96564 29.6739 4.31342 29.0217C3.6612 28.3694 3.33453 27.5844 3.33342 26.6667V8.33333C3.33342 7.41667 3.66009 6.63222 4.31342 5.98C4.96675 5.32778 5.7512 5.00111 6.66675 5H33.3334C34.2501 5 35.0351 5.32667 35.6884 5.98C36.3418 6.63333 36.6679 7.41778 36.6668 8.33333V26.6667C36.6668 27.5833 36.3406 28.3683 35.6884 29.0217C35.0362 29.675 34.2512 30.0011 33.3334 30H6.66675Z" fill="white"/>
</svg>
